<svg version="1.1" id="Layer_1" xmlns="http://www.w3.org/2000/svg" xmlns:xlink="http://www.w3.org/1999/xlink" x="0px" y="0px"
	 width="100%" viewBox="0 0 3329 751" enable-background="new 0 0 3329 751" xml:space="preserve">
<path fill="#FFFFFF" opacity="1.000000" stroke="none" 
	d="
M951.468628,752.000000 
	C949.522095,751.666626 948.059998,751.207703 946.563843,751.019592 
	C933.162964,749.335083 919.681580,748.144775 906.371704,745.923157 
	C892.746948,743.649109 879.102600,741.045593 865.813232,737.342957 
	C854.164246,734.097351 842.750549,729.680908 831.678955,724.774963 
	C819.140198,719.218933 806.596252,713.351624 794.968384,706.145325 
	C780.619812,697.252869 766.846252,687.312500 753.511597,676.941162 
	C742.191650,668.136902 731.532288,658.404785 721.201294,648.439758 
	C715.761719,643.192810 711.666931,636.555603 706.932922,630.571472 
	C704.064941,626.946167 700.913086,623.524292 698.278198,619.739807 
	C691.798706,610.433350 685.217590,601.170532 679.293152,591.512451 
	C673.603699,582.237183 668.344910,572.655579 663.551270,562.887451 
	C660.257629,556.175903 657.787476,549.011536 655.467896,541.880859 
	C650.620361,526.978638 645.708679,512.074768 641.627380,496.954590 
	C639.274597,488.238037 638.003052,479.145966 637.113953,470.137115 
	C635.695251,455.761780 633.899048,441.285553 634.283142,426.905945 
	C634.747437,409.523102 637.429443,392.206268 638.943237,374.842712 
	C640.299377,359.287964 644.549194,344.455688 649.657898,329.820374 
	C652.603027,321.383545 655.576843,312.950989 658.808655,304.621613 
	C662.038208,296.298126 664.881348,287.704895 669.178101,279.940643 
	C677.658142,264.617096 686.801697,249.643250 696.154968,234.830505 
	C699.172119,230.052246 703.776794,226.293015 707.529602,221.958832 
	C713.247253,215.355301 718.655823,208.473007 724.572205,202.056305 
	C729.441711,196.775040 734.614319,191.710236 740.092163,187.068283 
	C747.517212,180.776306 755.246887,174.825012 763.057678,169.012268 
	C771.554321,162.689163 779.984009,156.183319 789.011658,150.692169 
	C798.561401,144.883408 808.757324,140.129822 818.717041,135.004913 
	C824.502075,132.028214 830.163269,128.619781 836.255981,126.471260 
	C849.986572,121.629341 863.869690,117.172295 877.845215,113.087311 
	C889.536926,109.669876 901.583008,107.444534 913.224731,103.882523 
	C925.504028,100.125412 937.349182,94.944397 949.638123,91.225098 
	C966.857483,86.013565 984.329041,81.639671 1001.659912,76.790596 
	C1014.134216,73.300400 1026.469727,69.280785 1039.023071,66.115318 
	C1052.559814,62.701824 1066.284912,60.038795 1079.915527,56.992828 
	C1097.497070,53.063965 1115.000977,48.753571 1132.660400,45.216927 
	C1148.467896,42.051182 1164.442383,39.720970 1180.340210,37.005241 
	C1193.883911,34.691669 1207.395386,32.170910 1220.973267,30.080757 
	C1233.499023,28.152550 1246.103516,26.742750 1258.655762,24.978788 
	C1269.746704,23.420176 1280.789429,21.499096 1291.897949,20.088587 
	C1301.945679,18.812796 1312.058228,18.055740 1322.133545,16.988436 
	C1334.208862,15.709271 1346.270508,14.300835 1358.346924,13.031623 
	C1365.573486,12.272110 1372.814087,11.640235 1380.053345,11.006755 
	C1394.798950,9.716413 1409.536255,8.302620 1424.298828,7.243403 
	C1437.648926,6.285533 1451.023071,5.615377 1464.395752,5.028666 
	C1482.235229,4.245986 1500.079956,3.549804 1517.928833,3.032211 
	C1536.503784,2.493562 1555.086304,2.211705 1573.832764,1.408781 
	C1594.354248,1.000000 1614.708496,1.000000 1635.531372,1.000005 
	C1637.311401,1.333343 1638.618652,1.934542 1639.934937,1.954706 
	C1646.432861,2.054254 1652.939575,1.815076 1659.431519,2.036334 
	C1675.779175,2.593482 1692.121338,3.313716 1708.461792,4.057269 
	C1709.322510,4.096432 1710.145996,4.955734 1710.986816,5.433208 
	C1710.188599,5.955107 1709.418579,6.881033 1708.588013,6.939059 
	C1693.100342,8.020982 1677.595703,8.868896 1662.115112,10.037049 
	C1646.765869,11.195291 1631.442993,12.696526 1616.101929,13.968496 
	C1603.201660,15.038113 1590.260132,15.698144 1577.394531,17.076849 
	C1561.752808,18.753052 1546.176147,21.028469 1530.562744,22.976355 
	C1519.348633,24.375380 1508.099854,25.511972 1496.904663,27.042868 
	C1486.260864,28.498333 1475.666870,30.318211 1465.049805,31.969774 
	C1449.955322,34.317829 1434.798096,36.323921 1419.782104,39.096325 
	C1404.740723,41.873428 1389.871948,45.573597 1374.867920,48.569832 
	C1361.405518,51.258194 1347.830566,53.382351 1334.363647,56.049911 
	C1323.305786,58.240299 1312.256226,60.561440 1301.339355,63.356667 
	C1278.002075,69.332077 1254.711914,75.502380 1231.480713,81.877518 
	C1212.319580,87.135719 1193.209717,92.601166 1174.190308,98.349174 
	C1156.708862,103.632431 1139.370117,109.389595 1121.985474,114.990517 
	C1114.825195,117.297348 1107.699951,119.714417 1100.583984,122.154999 
	C1099.608276,122.489639 1098.779175,123.252007 1097.166504,124.266640 
	C1108.864868,129.372192 1120.017090,133.906433 1130.855957,139.095016 
	C1137.328613,142.193527 1143.198730,146.532928 1149.583252,149.845169 
	C1151.407104,150.791367 1154.336670,150.784790 1156.328125,150.048721 
	C1178.846436,141.725601 1201.103149,132.658173 1223.796631,124.857063 
	C1240.590576,119.083977 1257.958130,114.994987 1275.005981,109.939545 
	C1288.358887,105.979858 1301.526611,101.378616 1314.935425,97.630516 
	C1328.856201,93.739326 1342.894165,90.195244 1357.011841,87.096390 
	C1383.955078,81.182365 1410.952515,75.497635 1438.005493,70.109070 
	C1451.466919,67.427719 1465.084229,65.502907 1478.661011,63.432392 
	C1495.574219,60.853043 1512.498413,58.328411 1529.455688,56.062836 
	C1541.416382,54.464836 1553.444824,53.378143 1565.434326,51.988956 
	C1579.355469,50.375954 1593.256226,48.579891 1607.187500,47.061806 
	C1615.332397,46.174240 1623.513916,45.589287 1631.689453,45.020718 
	C1642.850708,44.244503 1654.021240,43.600731 1665.189209,42.924038 
	C1676.032593,42.267014 1686.872314,41.511513 1697.723999,41.035534 
	C1708.968628,40.542309 1720.223999,40.244213 1731.477905,40.015766 
	C1766.521240,39.304409 1801.564209,38.492313 1836.611572,38.083614 
	C1851.135010,37.914246 1865.673706,38.539333 1880.197266,39.039875 
	C1894.678955,39.538979 1909.157104,40.215187 1923.624512,41.032913 
	C1938.721924,41.886261 1953.818359,42.829536 1968.889404,44.052879 
	C1982.313721,45.142555 1995.711548,46.585712 2009.104736,48.024666 
	C2023.697266,49.592480 2038.303711,51.094055 2052.845215,53.059479 
	C2073.276855,55.821003 2093.657227,58.965015 2114.050781,62.003708 
	C2116.061523,62.303288 2118.011719,63.008495 2119.989990,63.525436 
	C2117.996094,64.017303 2116.021484,64.822083 2114.004639,64.947823 
	C2104.358398,65.549240 2094.701172,65.981796 2085.046387,66.445503 
	C2073.927002,66.979561 2062.803223,67.428879 2051.686523,68.015472 
	C2040.353516,68.613503 2029.000488,69.043053 2017.703979,70.071579 
	C2002.596436,71.447113 1987.543213,73.409554 1972.450806,74.965637 
	C1961.393188,76.105721 1950.281128,76.752007 1939.245605,78.060402 
	C1924.516602,79.806702 1909.827148,81.902382 1895.141724,83.995262 
	C1881.813965,85.894684 1868.488403,87.835022 1855.211548,90.055206 
	C1846.118896,91.575661 1837.108398,93.590706 1828.067139,95.414146 
	C1818.929810,97.256935 1809.801025,99.143059 1800.665771,100.996941 
	C1794.033813,102.342834 1787.376587,103.572250 1780.767090,105.019875 
	C1764.749268,108.528053 1748.652832,111.743301 1732.773926,115.803314 
	C1714.967041,120.356277 1697.336914,125.613045 1679.680542,130.738342 
	C1659.067993,136.721771 1638.436768,142.659729 1617.957764,149.077118 
	C1606.638550,152.624146 1595.617798,157.121994 1584.454956,161.170471 
	C1580.249146,162.695770 1575.982056,164.059586 1571.817383,165.687668 
	C1568.405029,167.021652 1566.665527,165.086823 1565.218262,162.612335 
	C1559.214478,152.346664 1553.395630,141.970932 1547.272949,131.777283 
	C1541.397827,121.995461 1535.325684,112.327049 1529.088989,102.772743 
	C1528.180664,101.381073 1525.878540,100.123299 1524.214966,100.115158 
	C1492.386230,99.959335 1460.556274,100.000008 1428.302002,100.000008 
	C1428.302002,142.463104 1428.302002,184.864212 1428.302002,227.370407 
	C1415.756958,234.121750 1403.300293,240.388611 1391.290771,247.419098 
	C1380.603271,253.675659 1370.358765,260.699371 1360.013062,267.527283 
	C1347.260376,275.943726 1334.390015,284.207306 1321.970947,293.096344 
	C1310.497192,301.308685 1299.524048,310.224121 1288.430542,318.956909 
	C1287.588867,319.619415 1286.937866,321.470215 1287.225952,322.473572 
	C1289.879028,331.714966 1292.854248,340.863556 1295.534668,350.097473 
	C1297.011597,355.184875 1298.104004,360.383881 1299.583862,366.403748 
	C1339.005371,331.300415 1381.596558,300.819519 1427.453979,274.123810 
	C1427.801392,274.623260 1428.914673,275.477173 1428.906982,276.320984 
	C1428.672485,302.217651 1428.216064,328.112854 1428.115845,354.009552 
	C1428.100098,358.073822 1426.624634,360.033600 1423.365967,362.104675 
	C1419.268921,364.708679 1415.552246,368.052246 1412.104858,371.508911 
	C1404.003174,379.632568 1396.052246,387.913757 1388.235596,396.313019 
	C1376.799194,408.601776 1365.006714,420.613922 1354.325439,433.536987 
	C1340.005737,450.862061 1326.388428,468.784119 1312.895142,486.769104 
	C1306.112549,495.809723 1299.383911,505.101257 1294.251709,515.110352 
	C1289.116455,525.125244 1286.077026,536.205505 1281.973267,546.762146 
	C1279.454956,553.240845 1276.903198,559.726990 1273.930664,566.003418 
	C1270.535156,573.172974 1267.051270,580.356506 1262.904175,587.102661 
	C1254.414429,600.912537 1246.627197,615.214600 1235.474731,627.250061 
	C1230.885132,632.203003 1227.069458,637.867981 1222.546875,642.889404 
	C1216.300903,649.824402 1210.198364,657.010498 1203.172119,663.092773 
	C1191.940674,672.815063 1180.157959,681.927002 1168.296875,690.884521 
	C1161.914673,695.704224 1154.319580,699.008911 1148.297119,704.189270 
	C1141.609619,709.941772 1133.585205,712.434021 1125.958618,715.978821 
	C1115.940430,720.635193 1105.942383,725.360962 1095.747681,729.605713 
	C1079.692139,736.290649 1063.004028,741.002502 1045.870483,743.958130 
	C1030.707031,746.573853 1015.479065,748.816101 1000.139771,751.611572 
	C983.979126,752.000000 967.958191,752.000000 951.468628,752.000000 
M1178.036987,314.559509 
	C1170.017822,301.989014 1162.728760,288.864471 1153.744141,277.026672 
	C1146.792603,267.867584 1137.960571,260.062744 1129.529175,252.117920 
	C1118.149414,241.394928 1106.355469,231.182999 1091.975464,224.382645 
	C1081.843140,219.591034 1072.247437,213.623001 1061.988647,209.151840 
	C1052.213501,204.891418 1042.083130,201.131470 1031.765625,198.495438 
	C1011.036255,193.199280 989.856628,190.133499 968.417908,190.357986 
	C950.667664,190.543839 933.105835,193.122711 915.774719,197.015808 
	C896.215210,201.409500 877.072449,207.063004 859.509155,217.031403 
	C853.227783,220.596481 847.018982,224.353195 841.111511,228.498886 
	C830.919678,235.651199 820.246765,242.370438 811.145752,250.758026 
	C800.809387,260.284119 792.017822,271.479553 782.481628,281.882385 
	C768.610168,297.014587 760.129517,315.330597 752.067932,333.817017 
	C745.970337,347.799835 741.739075,362.372437 738.647522,377.401581 
	C734.820862,396.004150 733.849060,414.651703 733.864990,433.544922 
	C733.881958,453.623657 736.498352,473.164490 741.897217,492.502747 
	C747.864136,513.875244 756.706970,533.892334 768.278625,552.737854 
	C779.738953,571.402039 793.824036,588.006836 810.204346,602.425659 
	C820.158142,611.187500 831.332153,618.569702 842.014282,626.495789 
	C855.358276,636.396973 870.278931,643.334595 885.956116,648.424316 
	C903.482971,654.114441 921.116028,659.659729 939.648071,661.294067 
	C949.752930,662.185242 959.860474,663.848755 969.958740,663.789612 
	C980.377319,663.728699 990.882568,662.578186 1001.175781,660.860779 
	C1015.312195,658.502136 1029.620972,656.238586 1043.247925,651.986084 
	C1063.160889,645.771790 1081.870605,636.398071 1099.396484,624.987000 
	C1108.819702,618.851624 1118.403687,612.705017 1126.769409,605.273743 
	C1135.638428,597.395447 1143.132690,587.972839 1151.257690,579.252930 
	C1160.726074,569.091370 1168.853149,557.919189 1174.986084,545.493958 
	C1181.289795,532.722534 1187.076050,519.681335 1192.662231,506.576416 
	C1195.287842,500.417114 1197.573120,493.960358 1198.851685,487.411804 
	C1201.315552,474.791290 1203.387573,462.057373 1204.793823,449.279327 
	C1205.857422,439.615540 1206.301636,429.775970 1205.806519,420.076691 
	C1205.244141,409.062134 1203.404785,398.106873 1201.984131,387.143524 
	C1199.948120,371.431366 1195.300293,356.371826 1189.834229,341.591278 
	C1186.509644,332.601196 1182.376587,323.910065 1178.036987,314.559509 
z"/>
<path fill="#FFFFFF" opacity="1.000000" stroke="none" 
	d="
M1.000001,423.399994 
	C1.333335,421.355164 1.921335,419.716461 1.961042,418.064545 
	C2.412882,399.267334 4.088641,380.647766 8.817300,362.358887 
	C12.113962,349.608521 14.465522,336.594482 18.206478,323.985199 
	C20.630726,315.814026 24.875387,308.191925 28.155231,300.262146 
	C30.099361,295.561798 31.272610,290.486450 33.637238,286.027710 
	C38.717621,276.448090 44.241997,267.097382 49.779915,257.768890 
	C54.414013,249.962906 58.895535,242.007690 64.234169,234.694946 
	C69.672241,227.246002 75.715309,220.152237 82.141769,213.532288 
	C91.017052,204.389816 100.278023,195.588425 109.787994,187.105286 
	C118.339279,179.477310 126.999649,171.817764 136.431656,165.371597 
	C147.208954,158.006012 158.803879,151.808777 170.211441,145.402863 
	C178.313522,140.853119 186.435883,136.168457 195.006516,132.661758 
	C210.261780,126.420036 225.862396,121.095428 242.144272,117.928200 
	C253.173141,115.782799 264.032196,112.772781 275.046509,110.540909 
	C281.250153,109.283836 287.593475,108.543892 293.911316,108.060326 
	C305.399017,107.181053 316.957184,105.702644 328.409363,106.208511 
	C349.687195,107.148399 371.077057,108.212738 392.104492,111.345192 
	C409.970093,114.006630 427.533447,119.158264 444.951355,124.176987 
	C454.233917,126.851624 462.938019,131.548645 471.878906,135.389465 
	C479.600891,138.706665 487.494415,141.707382 494.936127,145.571991 
	C503.168121,149.847000 511.143127,154.684448 518.912109,159.763290 
	C525.726440,164.218033 532.335022,169.062576 538.608337,174.250290 
	C545.862671,180.249207 552.709656,186.748322 559.617554,193.155273 
	C563.380493,196.645309 566.826904,200.475220 570.563049,203.995865 
	C572.769043,206.074646 572.101257,207.509216 570.221863,209.310120 
	C559.981384,219.122864 549.633972,228.835114 539.695435,238.947586 
	C534.088013,244.653137 529.234741,251.095627 523.963257,257.137695 
	C521.726440,259.701447 519.597778,262.571503 516.814087,264.358765 
	C515.375122,265.282623 512.017456,264.915466 510.556671,263.792145 
	C506.004181,260.291260 502.080292,255.986877 497.658539,252.298721 
	C491.481323,247.146378 485.074738,242.268997 478.766327,237.273895 
	C472.352448,232.195297 466.066528,226.941223 459.461792,222.124359 
	C456.828918,220.204208 453.531860,219.153503 450.467865,217.872910 
	C436.901825,212.202957 423.580322,205.768066 409.645996,201.214371 
	C397.783875,197.337845 385.168976,195.809601 372.952698,192.961349 
	C354.656006,188.695389 336.007172,188.084686 317.505493,189.273148 
	C300.133850,190.389008 282.564575,191.757355 265.928314,197.965729 
	C252.465027,202.989975 238.741882,207.390976 225.546356,213.032883 
	C217.356644,216.534470 209.941635,221.844803 202.167465,226.323410 
	C199.962112,227.593918 197.426697,228.457596 195.537079,230.082748 
	C184.501816,239.573593 173.168686,248.783966 162.818420,258.984283 
	C154.748901,266.936859 147.421890,275.799591 140.762909,284.981598 
	C134.384293,293.777039 128.806992,303.251526 123.762810,312.890808 
	C118.069542,323.770508 112.417915,334.846588 108.494354,346.428802 
	C104.545799,358.084808 102.646881,370.446808 100.021301,382.536743 
	C95.544670,403.150024 95.551888,424.107422 96.176613,445.006134 
	C96.456390,454.365570 98.134300,463.776978 100.089493,472.970917 
	C103.162155,487.419556 106.115059,502.003845 110.809410,515.962097 
	C114.474037,526.858643 120.621208,536.934570 125.833511,547.290527 
	C128.715607,553.016785 131.562286,558.823425 135.109360,564.137024 
	C139.921524,571.345764 144.949921,578.507996 150.698639,584.966431 
	C156.555710,591.546570 163.447464,597.198730 169.795395,603.350891 
	C176.270615,609.626404 182.299515,616.414001 189.170609,622.210754 
	C193.507355,625.869385 198.861160,628.479492 204.053497,630.937256 
	C219.254425,638.132568 234.897446,644.455139 249.767563,652.261902 
	C257.028839,656.074158 264.759399,656.670166 272.183960,659.019226 
	C288.483765,664.176453 305.267181,665.643066 322.241119,666.064880 
	C328.906952,666.230530 335.558563,667.589355 342.209534,667.534973 
	C347.521942,667.491638 352.833069,666.189453 358.127502,665.338440 
	C364.684143,664.284424 371.240234,663.210876 377.764862,661.977905 
	C385.203064,660.572266 392.637909,659.119568 400.015778,657.431885 
	C407.202789,655.787781 414.398163,654.082886 421.424561,651.877930 
	C424.603821,650.880188 427.297211,648.430115 430.360809,646.948547 
	C437.401031,643.544006 444.936707,640.977173 451.525208,636.872742 
	C459.649292,631.811768 466.958160,625.455383 474.729645,619.810669 
	C480.318054,615.751587 486.395294,612.310059 491.673889,607.898438 
	C495.600250,604.616882 498.659027,600.274536 501.978760,596.299866 
	C503.518982,594.455811 504.456696,592.021790 506.207092,590.459839 
	C509.036560,587.935059 511.851898,587.494263 515.695618,589.933899 
	C522.554626,594.287415 528.184265,599.511047 533.560242,605.646912 
	C539.926453,612.912903 548.077087,618.604004 555.366882,625.076172 
	C560.336060,629.488037 565.258850,633.962769 570.009155,638.606995 
	C573.870361,642.382019 571.135254,645.911560 568.635559,648.708862 
	C565.473267,652.247620 561.538391,655.082703 558.156067,658.442139 
	C555.222473,661.356018 552.824646,664.828247 549.788818,667.616943 
	C540.481628,676.166565 531.214722,684.790222 521.458252,692.808350 
	C516.547363,696.844238 510.645935,699.691040 505.130829,702.972046 
	C495.574493,708.657227 486.329285,715.033020 476.295227,719.705383 
	C463.741241,725.551086 450.722534,730.592468 437.533630,734.825745 
	C424.716095,738.939880 411.523193,742.052246 398.319366,744.741394 
	C387.989441,746.845398 377.420746,747.970032 366.902374,748.897644 
	C357.666992,749.712036 348.356415,749.790405 339.074982,749.935303 
	C328.288544,750.103882 317.452881,750.612793 306.720367,749.839294 
	C293.922607,748.916992 281.085999,747.440063 268.498230,745.004395 
	C255.778183,742.543274 243.465805,737.980164 230.748154,735.500366 
	C216.789474,732.778687 203.736115,727.759033 191.000534,721.881470 
	C183.156937,718.261536 175.946838,713.275940 168.420624,708.958740 
	C163.719528,706.262085 158.857086,703.833862 154.250153,700.988831 
	C147.650787,696.913391 141.172485,692.635986 134.732407,688.310974 
	C130.826141,685.687561 126.933235,683.000305 123.313812,680.004150 
	C118.121033,675.705505 112.862061,671.404480 108.229004,666.535706 
	C103.797371,661.878662 99.795952,657.014282 94.223923,653.424683 
	C90.593155,651.085815 88.134857,646.938232 85.120544,643.628906 
	C78.014412,635.827209 70.251991,628.521606 63.941402,620.123779 
	C56.761932,610.569763 50.501484,600.260742 44.509457,589.893860 
	C35.601734,574.482422 27.844921,558.513000 22.621628,541.364746 
	C20.449244,534.232727 16.609554,527.615540 14.333173,520.506409 
	C12.037518,513.337158 10.348462,505.914551 9.090653,498.484924 
	C6.789391,484.891785 4.602493,471.254517 3.132541,457.553619 
	C2.059125,447.548706 2.211591,437.412262 1.408797,427.167236 
	C1.000000,425.933319 1.000000,424.866669 1.000001,423.399994 
z"/>
<path fill="#FFFFFF" opacity="1.000000" stroke="none" 
	d="
M3330.000000,193.531326 
	C3327.916504,194.666626 3325.833984,195.910751 3323.749023,195.915344 
	C3274.252686,196.024323 3224.756348,196.000000 3175.259766,196.000000 
	C3155.309814,196.000000 3135.359619,196.000000 3114.973877,196.000000 
	C3114.973877,207.917908 3115.085449,219.496552 3114.931152,231.071671 
	C3114.842041,237.760666 3114.121826,244.441574 3114.043457,251.130325 
	C3113.893799,263.903656 3114.000000,276.679962 3114.000000,289.455048 
	C3114.000000,357.436340 3114.000000,425.417633 3114.000000,493.398926 
	C3114.000000,506.711121 3114.000000,520.023315 3114.000000,533.335510 
	C3114.000000,539.987793 3114.000000,546.640076 3114.000000,553.292358 
	C3114.000000,563.786926 3114.000000,574.281433 3114.000000,584.776001 
	C3114.000000,605.765869 3113.895264,626.756409 3114.045166,647.745239 
	C3114.118164,657.973755 3114.958984,668.199707 3114.931641,678.425415 
	C3114.890137,693.824524 3114.303467,709.221497 3114.142334,724.621338 
	C3114.094238,729.202515 3114.668213,733.792603 3115.008545,738.374756 
	C3115.304443,742.359619 3113.604004,744.279846 3109.520020,744.010071 
	C3103.977295,743.643921 3098.433105,743.256592 3092.883057,743.062195 
	C3090.200684,742.968262 3087.505371,743.346680 3084.813232,743.419495 
	C3076.774902,743.636902 3068.735840,743.918945 3060.696289,743.943237 
	C3057.615234,743.952576 3054.526367,743.008118 3051.451172,743.063843 
	C3043.696045,743.204468 3035.939209,743.547363 3028.197998,744.043457 
	C3023.345947,744.354431 3021.916748,742.213806 3021.933105,737.592590 
	C3022.056152,702.945435 3022.000000,668.297729 3022.000000,633.650146 
	C3022.000000,608.694519 3021.901611,583.738342 3022.045410,558.783508 
	C3022.108154,547.896240 3022.932861,537.011658 3022.927002,526.126099 
	C3022.920654,514.707520 3022.245117,503.290894 3022.029785,491.870270 
	C3021.876221,483.733368 3022.000000,475.591309 3022.000000,467.451538 
	C3022.000000,439.455963 3022.000000,411.460419 3022.000000,383.464844 
	C3022.000000,362.982941 3021.938965,342.500702 3022.045166,322.019348 
	C3022.069824,317.266388 3022.942383,312.515320 3022.923584,307.765381 
	C3022.901611,302.201172 3022.027100,296.636841 3022.067871,291.076569 
	C3022.136963,281.711670 3022.728760,272.351898 3022.924561,262.986267 
	C3023.083740,255.363815 3023.115234,247.733475 3022.968750,240.111115 
	C3022.759277,229.199265 3022.307861,218.292221 3022.041504,207.381104 
	C3022.010986,206.122101 3022.454834,204.838425 3022.762451,203.586670 
	C3024.076416,198.236160 3022.385254,196.001312 3016.971191,196.000809 
	C2995.805908,195.998810 2974.640869,196.000000 2953.475586,196.000000 
	C2906.671631,196.000000 2859.867432,196.000565 2813.063477,195.999237 
	C2807.608887,195.999084 2806.769043,194.908951 2806.956299,189.388626 
	C2807.153320,183.578537 2807.001221,177.756622 2807.001221,171.939865 
	C2807.001221,166.581680 2806.900635,161.221283 2807.020020,155.865768 
	C2807.289307,143.805649 2807.937500,131.746368 2807.866211,119.690071 
	C2807.837646,114.905807 2809.332275,113.704224 2813.865967,113.902580 
	C2821.834473,114.251221 2829.828857,114.000000 2837.812500,114.000000 
	C2946.291016,114.000000 3054.769531,113.974037 3163.248047,114.043022 
	C3173.300781,114.049416 3183.354248,114.956413 3193.405273,114.918053 
	C3208.145020,114.861778 3222.881592,114.222031 3237.622314,114.032967 
	C3250.093262,113.873001 3262.568115,114.000000 3275.041260,114.000000 
	C3291.514160,114.000000 3307.987061,113.980293 3324.459961,114.031738 
	C3326.037109,114.036659 3327.613037,114.485146 3329.594727,114.863861 
	C3330.000000,141.020889 3330.000000,167.041794 3330.000000,193.531326 
z"/>
<path fill="#FFFFFF" opacity="1.000000" stroke="none" 
	d="
M2114.740723,402.429504 
	C2114.643555,409.761841 2114.080078,416.675934 2114.072510,423.590637 
	C2114.065674,429.830505 2114.865234,436.068207 2114.955811,442.311981 
	C2115.112305,453.071136 2114.990723,463.834320 2114.990967,474.595795 
	C2114.993164,535.073669 2114.997070,595.551514 2114.999756,656.029419 
	C2115.000488,669.143555 2115.000000,682.257690 2115.000000,695.371826 
	C2115.000000,706.706970 2115.000000,718.042053 2115.000000,729.377197 
	C2115.000000,734.297363 2115.000000,739.217468 2115.000000,743.829773 
	C2084.716309,743.829773 2055.081055,743.829773 2025.282715,743.829773 
	C2025.282715,592.595398 2025.282715,441.536072 2025.282715,290.476746 
	C2024.905396,290.389862 2024.528198,290.302948 2024.150879,290.216064 
	C2021.744995,294.286743 2019.358643,298.369080 2016.929810,302.426086 
	C2002.420532,326.661407 1987.758667,350.806976 1973.444336,375.156830 
	C1965.990112,387.836853 1959.346802,400.992401 1951.943115,413.703583 
	C1947.714111,420.964325 1942.435181,427.608978 1938.107788,434.818390 
	C1934.392090,441.008575 1931.392822,447.626282 1928.003906,454.016235 
	C1926.432495,456.978973 1924.686646,459.849030 1923.022095,462.762390 
	C1918.265137,471.088593 1913.727051,479.549744 1908.694702,487.706116 
	C1903.115845,496.748108 1896.813110,505.348206 1891.348389,514.454468 
	C1887.745361,520.458069 1885.358643,527.181946 1881.900269,533.284607 
	C1877.232666,541.521057 1871.874268,549.364380 1867.146851,557.569214 
	C1860.842163,568.511902 1855.017090,579.731201 1848.697144,590.664673 
	C1840.984131,604.008179 1832.935547,617.157288 1825.099731,630.430481 
	C1818.509399,641.593933 1811.848511,652.722229 1805.576904,664.064026 
	C1803.583618,667.668762 1800.848633,668.104126 1797.460693,668.000061 
	C1786.576050,667.665588 1775.692383,667.278870 1764.805664,667.048096 
	C1762.746094,667.004395 1760.487305,668.235596 1758.652710,667.712708 
	C1756.258057,667.030212 1753.416382,665.702881 1752.121460,663.753357 
	C1746.191040,654.824463 1740.624390,645.646362 1735.140991,636.430542 
	C1730.634766,628.857300 1726.494019,621.067627 1722.076294,613.440552 
	C1714.222046,599.880371 1706.207764,586.412598 1698.398438,572.826721 
	C1692.161987,561.977356 1686.175781,550.984436 1679.987061,540.107178 
	C1677.445557,535.640381 1674.521240,531.389771 1672.020386,526.901855 
	C1666.199097,516.455872 1660.692749,505.831360 1654.730713,495.467926 
	C1651.604004,490.033234 1647.523315,485.150665 1644.343994,479.742126 
	C1639.989746,472.334473 1636.119385,464.643677 1631.964966,457.116608 
	C1630.417969,454.313629 1628.622070,451.649323 1626.995972,448.888580 
	C1619.216431,435.680542 1611.478271,422.447937 1603.676270,409.253143 
	C1601.071899,404.848633 1598.203857,400.597626 1595.667603,396.155914 
	C1592.664185,390.896179 1590.106934,385.373627 1586.961426,380.205322 
	C1582.853394,373.455627 1578.093750,367.096954 1574.093506,360.288574 
	C1568.508423,350.782990 1563.598022,340.879852 1557.978516,331.395905 
	C1550.045898,318.007904 1541.729004,304.847534 1533.000000,290.652313 
	C1533.000000,292.960052 1533.000000,294.589081 1533.000000,296.218079 
	C1533.000000,304.050690 1533.128296,311.886017 1532.964844,319.715210 
	C1532.792725,327.956421 1532.261597,336.189972 1532.069214,344.431091 
	C1532.020996,346.489838 1532.958252,348.564819 1532.958984,350.632477 
	C1533.004639,480.287323 1533.000000,609.942200 1533.000000,739.597046 
	C1533.000000,740.898743 1533.000000,742.200439 1533.000000,743.017273 
	C1521.678711,743.017273 1510.658447,742.990234 1499.638428,743.029358 
	C1494.532104,743.047424 1489.426025,743.185852 1484.320068,743.284607 
	C1472.246826,743.518005 1460.172241,743.909851 1448.102539,743.794189 
	C1446.724365,743.781006 1444.328613,741.029846 1444.197021,739.403137 
	C1443.718750,733.496033 1444.000854,727.527161 1444.000610,721.581604 
	C1443.999512,692.250916 1444.000000,662.920288 1444.000000,633.589600 
	C1444.000000,546.806824 1444.000000,460.024078 1444.000000,373.241302 
	C1444.000000,342.270081 1443.915039,311.298462 1444.046021,280.327789 
	C1444.092163,269.408386 1444.992065,258.489716 1444.942383,247.573227 
	C1444.751099,205.490540 1444.332886,163.408859 1444.001709,121.326797 
	C1443.988770,119.694061 1444.000000,118.061119 1444.000000,116.000000 
	C1452.453369,116.000000 1460.568115,116.000000 1468.682983,116.000000 
	C1483.515015,116.000000 1498.365967,116.436722 1513.169678,115.789200 
	C1519.255493,115.523010 1522.217285,117.860596 1525.007690,122.584816 
	C1543.567627,154.007126 1562.367188,185.287796 1580.948853,216.697342 
	C1597.723511,245.052231 1614.256226,273.550110 1631.016602,301.913513 
	C1642.630371,321.567505 1654.522949,341.056702 1666.148438,360.703827 
	C1672.995605,372.275482 1679.443970,384.083282 1686.301392,395.648651 
	C1690.727539,403.113861 1695.723267,410.240387 1700.188477,417.683807 
	C1706.275024,427.830322 1712.109497,438.128265 1718.033203,448.372192 
	C1724.375366,459.339600 1730.587769,470.383606 1737.058472,481.274445 
	C1742.468750,490.380463 1748.387207,499.188019 1753.689941,508.353760 
	C1761.352417,521.598328 1768.626343,535.067322 1776.175903,548.378235 
	C1776.947388,549.738586 1778.340088,551.296021 1779.689209,551.573853 
	C1780.502808,551.741455 1782.057861,549.772888 1782.818970,548.490723 
	C1787.297119,540.946350 1791.682007,533.345520 1796.016479,525.717346 
	C1800.824341,517.256409 1805.452026,508.692047 1810.332153,500.273590 
	C1814.350098,493.342346 1818.573853,486.528473 1822.793091,479.716248 
	C1828.427002,470.620056 1834.425781,461.736694 1839.737061,452.457947 
	C1843.912964,445.162750 1846.888184,437.174194 1851.144653,429.933136 
	C1854.263306,424.627380 1858.866699,420.214874 1862.286499,415.058075 
	C1864.436646,411.815552 1865.417603,407.823425 1867.278442,404.358398 
	C1873.093506,393.529633 1878.922607,382.702545 1885.044312,372.045990 
	C1890.152954,363.152954 1895.805786,354.573914 1900.991089,345.723022 
	C1906.909546,335.620575 1912.418335,325.276489 1918.412476,315.220642 
	C1922.104980,309.026001 1926.682739,303.354218 1930.300537,297.121277 
	C1934.591919,289.727814 1938.133911,281.903625 1942.265869,274.412415 
	C1947.076050,265.692139 1952.128540,257.104187 1957.157959,248.506836 
	C1962.487549,239.396713 1967.867798,230.315552 1973.308105,221.271133 
	C1981.985229,206.845551 1990.877686,192.547150 1999.399658,178.031036 
	C2005.974365,166.832367 2011.984741,155.303223 2018.512451,144.075943 
	C2021.974365,138.122070 2026.146973,132.584747 2029.712646,126.686409 
	C2031.340332,123.993774 2032.327271,120.903351 2033.510376,117.955406 
	C2034.694214,115.005722 2036.622192,113.800179 2039.946411,113.933472 
	C2052.004395,114.417000 2064.071777,114.755531 2076.138916,114.909256 
	C2088.523926,115.067047 2100.912354,114.944260 2114.000000,114.944260 
	C2114.000000,119.660545 2114.000000,125.222977 2114.000000,130.785416 
	C2114.000000,151.950150 2114.000000,173.114899 2114.000000,194.279633 
	C2114.000000,242.088379 2113.916748,289.897339 2114.045654,337.705750 
	C2114.089844,354.111389 2114.724609,370.514740 2114.960449,386.920990 
	C2115.032715,391.947998 2114.676270,396.981140 2114.740723,402.429504 
z"/>
<path fill="#FFFFFF" opacity="1.000000" stroke="none" 
	d="
M2586.000000,113.000000 
	C2604.083252,113.245140 2621.666504,113.699745 2639.249512,113.682068 
	C2660.912842,113.660301 2682.575684,113.218521 2704.239258,113.013260 
	C2712.771729,112.932404 2721.306641,112.935074 2729.838623,113.046806 
	C2731.906982,113.073891 2734.032471,113.483482 2736.000244,114.122017 
	C2736.807129,114.383804 2737.780273,115.706253 2737.800537,116.566933 
	C2737.949951,122.892723 2737.980957,129.225952 2737.845703,135.552475 
	C2737.708984,141.937912 2737.089600,148.319809 2737.127686,154.700592 
	C2737.185059,164.290665 2737.656982,173.877747 2737.897217,183.467484 
	C2737.979980,186.765457 2738.350586,190.162399 2737.688477,193.325516 
	C2737.383301,194.783997 2735.030518,196.007477 2733.373779,196.911957 
	C2732.475098,197.402695 2731.088379,196.999985 2729.921875,196.999985 
	C2615.096436,197.000000 2500.270752,197.000000 2385.445312,197.000000 
	C2384.139648,197.000000 2382.834229,197.000000 2381.265381,197.000000 
	C2381.265381,259.332001 2381.265381,321.401520 2381.265381,384.000519 
	C2386.007324,384.000519 2390.762695,384.000427 2395.517822,384.000519 
	C2405.302490,384.000732 2415.089355,383.876373 2424.871094,384.042664 
	C2432.114502,384.165802 2439.349121,384.864288 2446.591797,384.956177 
	C2459.068848,385.114441 2471.549316,385.000000 2484.028320,385.000000 
	C2509.188721,385.000000 2534.349121,385.072968 2559.509033,384.954102 
	C2566.762451,384.919830 2574.012939,384.070251 2581.264893,384.073181 
	C2588.683350,384.076172 2596.101318,384.913879 2603.520508,384.926971 
	C2610.257080,384.938843 2616.995850,384.051117 2623.731934,384.072113 
	C2631.960205,384.097748 2640.188232,384.965485 2648.413330,384.917938 
	C2662.620361,384.835785 2676.823486,384.260345 2691.030762,384.025726 
	C2699.515625,383.885590 2700.082275,384.447479 2699.962891,393.278534 
	C2699.840088,402.346008 2699.205566,411.409180 2699.194336,420.474762 
	C2699.184082,428.711823 2699.880371,436.948456 2699.934326,445.187469 
	C2699.965576,449.927856 2699.009033,454.679352 2699.105957,459.413422 
	C2699.196777,463.868500 2696.556152,464.002991 2693.431641,464.001495 
	C2684.432129,463.997162 2675.432861,464.000000 2666.433350,464.000000 
	C2647.268066,464.000000 2628.102539,464.000000 2608.937256,464.000000 
	C2534.958496,464.000000 2460.979980,463.996643 2387.001221,464.019043 
	C2385.124512,464.019592 2383.247803,464.303101 2382.000000,464.403870 
	C2382.000000,469.023590 2382.000000,472.921112 2382.000000,476.818665 
	C2382.000000,516.649292 2382.000244,556.479919 2382.000000,596.310547 
	C2382.000000,604.446899 2382.755127,612.670654 2381.826172,620.699585 
	C2380.348633,633.473694 2381.635742,646.222473 2380.938477,658.954224 
	C2380.721436,662.923157 2382.010010,664.125732 2386.010010,664.085510 
	C2405.006836,663.894226 2424.006348,664.000000 2443.005127,664.000000 
	C2478.822021,664.000000 2514.639160,664.000000 2550.456055,664.000000 
	C2615.259033,664.000000 2680.062012,664.000000 2744.864990,664.000000 
	C2746.688721,664.000000 2748.512451,664.000000 2751.167480,664.000000 
	C2751.167480,690.632202 2751.167480,717.107666 2751.167480,744.999939 
	C2740.209961,744.999939 2729.697510,745.117859 2719.188965,744.973083 
	C2702.269531,744.739990 2685.353027,744.078918 2668.434570,744.045837 
	C2608.272217,743.928406 2548.109375,744.000000 2487.946777,744.000000 
	C2448.296875,744.000000 2408.646729,744.000000 2368.996826,744.000000 
	C2343.840576,744.000000 2318.683594,743.897583 2293.528809,744.096619 
	C2289.125488,744.131470 2287.851074,742.888672 2287.901855,738.475647 
	C2288.128174,718.826843 2288.071045,699.173462 2287.954834,679.522705 
	C2287.921875,673.936218 2287.088867,668.351807 2287.112793,662.768555 
	C2287.126953,659.470703 2288.367676,656.193237 2288.571289,652.876831 
	C2288.779541,649.484924 2288.405273,646.056274 2288.263184,642.644592 
	C2288.208984,641.334961 2287.493164,639.498230 2288.103516,638.807800 
	C2291.426758,635.049194 2289.327637,631.011475 2288.945312,627.177429 
	C2284.431885,581.925720 2287.777832,536.567749 2287.141846,491.266571 
	C2286.498779,445.445374 2287.000000,399.608124 2287.000000,353.777893 
	C2287.000000,308.114349 2287.060059,262.450623 2286.954346,216.787338 
	C2286.930176,206.369171 2286.082520,195.952682 2286.067871,185.534790 
	C2286.051758,174.181564 2286.754150,162.828232 2286.792725,151.473770 
	C2286.831299,140.084549 2286.406250,128.694183 2286.285889,117.303261 
	C2286.275146,116.290337 2287.012451,115.269440 2287.881836,113.000000 
	C2386.765625,113.000000 2486.132812,113.000000 2586.000000,113.000000 
z"/>
<path fill="#FFFFFF" opacity="1.000000" stroke="none" 
	d="
M1737.615967,156.743256 
	C1778.066650,147.831772 1818.149780,139.142075 1858.232910,130.452362 
	C1858.607300,130.904770 1858.981812,131.357162 1859.356201,131.809555 
	C1858.454224,132.869003 1857.753418,134.502487 1856.619507,134.899887 
	C1843.926514,139.348480 1831.131470,143.505783 1818.433105,147.939651 
	C1799.868164,154.421921 1781.356323,161.056564 1762.828247,167.644485 
	C1752.000732,171.494339 1741.041626,175.024445 1730.400024,179.335800 
	C1715.993286,185.172592 1701.834961,191.622223 1687.568970,197.806473 
	C1676.567383,202.575516 1665.448853,207.094070 1654.594971,212.178009 
	C1644.102783,217.092514 1633.848999,222.522873 1623.559814,227.860184 
	C1619.572144,229.928757 1615.854126,232.525375 1611.830688,234.511597 
	C1610.892944,234.974548 1608.511475,234.367371 1607.978760,233.513474 
	C1601.680298,223.420731 1595.545410,213.223007 1589.595825,202.921082 
	C1589.141113,202.133820 1590.093140,199.468445 1590.933350,199.161896 
	C1600.657837,195.613525 1610.444458,192.220169 1620.300415,189.052917 
	C1629.262085,186.173096 1638.359985,183.719177 1647.340820,180.896301 
	C1655.276733,178.401825 1663.030640,175.274002 1671.050049,173.112091 
	C1683.452393,169.768631 1696.015747,167.024048 1708.504395,163.998276 
	C1718.090942,161.675629 1727.667480,159.311020 1737.615967,156.743256 
z"/>
</svg>