<svg version="1.1" id="Layer_1" xmlns="http://www.w3.org/2000/svg" xmlns:xlink="http://www.w3.org/1999/xlink" x="0px" y="0px"
	 width="100%" viewBox="0 0 3616 1184" enable-background="new 0 0 3616 1184" xml:space="preserve">
<path fill="#FCFDFC" opacity="1.000000" stroke="none" 
	d="
M2544.000000,1186.000000 
	C1696.000000,1186.000000 849.000000,1186.000000 2.000000,1186.000000 
	C2.000000,791.333313 2.000000,396.666656 2.000000,2.000000 
	C1207.333374,2.000000 2412.666748,2.000000 3618.000000,2.000000 
	C3618.000000,396.666656 3618.000000,791.333313 3618.000000,1186.000000 
	C3260.333252,1186.000000 2902.666748,1186.000000 2544.000000,1186.000000 
M1052.018799,896.116760 
	C1049.621948,898.192932 1047.224976,900.269104 1043.403564,902.184631 
	C1040.616821,902.608032 1037.985352,903.606140 1038.968750,906.996643 
	C1039.658325,909.373962 1041.572876,910.915649 1045.421143,907.659546 
	C1046.944458,907.763245 1048.467773,907.866943 1050.921509,909.082764 
	C1054.916870,909.847961 1059.210205,912.186279 1063.571533,906.330261 
	C1065.726440,906.259705 1067.881226,906.189148 1070.846191,907.157898 
	C1073.943726,908.314209 1076.870483,908.981018 1079.485107,904.102966 
	C1081.003784,904.114197 1082.522461,904.125427 1084.927124,905.214294 
	C1087.939087,906.151184 1090.951172,907.088074 1092.283081,907.502380 
	C1096.780884,905.115723 1099.877808,903.712646 1102.704712,901.890564 
	C1104.692627,900.609314 1106.313110,898.758118 1109.256714,896.332642 
	C1110.193604,896.299561 1111.130493,896.266479 1112.988281,897.210754 
	C1123.068359,894.705627 1133.198730,892.374512 1143.169312,889.490723 
	C1144.524902,889.098633 1145.080811,885.941833 1146.751465,883.203918 
	C1147.783081,882.781128 1148.814819,882.358398 1151.194580,882.069824 
	C1152.816528,880.944031 1154.438599,879.818237 1157.175415,877.798767 
	C1166.117432,872.534058 1175.059326,867.269409 1184.827759,863.079712 
	C1187.103760,862.481628 1189.617065,862.307556 1191.604858,861.194763 
	C1195.413086,859.063171 1198.922607,856.398132 1203.683960,853.195801 
	C1203.683960,852.016968 1203.683960,849.502869 1204.067139,846.405334 
	C1204.420776,846.070679 1204.840454,845.886108 1206.777466,845.894348 
	C1207.828003,844.537659 1208.878540,843.181030 1210.480957,840.604065 
	C1221.364746,829.616516 1232.248535,818.628967 1244.787720,807.853088 
	C1253.594238,805.467896 1253.918823,804.981506 1253.529175,794.226196 
	C1253.529175,794.226196 1254.048218,794.005493 1255.662231,794.064697 
	C1258.147583,793.745728 1260.632812,793.426758 1263.168701,793.101379 
	C1262.544556,788.499451 1262.020386,784.633911 1261.633789,779.634338 
	C1262.546021,778.434143 1263.458252,777.233948 1265.826904,775.749023 
	C1269.053589,773.371521 1270.381836,770.341431 1269.245239,765.130676 
	C1270.545898,763.449890 1271.846436,761.769165 1274.139648,759.899292 
	C1274.217041,758.632324 1274.294556,757.365356 1274.142578,754.908081 
	C1274.792725,753.950195 1275.442749,752.992249 1277.594971,751.898865 
	C1291.279785,746.937927 1291.277710,746.938354 1288.371216,732.980225 
	C1288.307617,732.674377 1288.448120,732.325928 1288.510864,731.871582 
	C1290.129761,730.571167 1291.818970,729.214355 1292.479492,728.683838 
	C1291.841675,724.538940 1290.579956,721.339478 1291.053223,718.421387 
	C1292.203735,711.326660 1294.330933,704.394653 1295.662231,697.321350 
	C1295.965332,695.710632 1294.638550,693.793274 1293.741577,690.483887 
	C1294.739990,687.008972 1295.738403,683.533997 1298.124634,679.643738 
	C1302.794922,670.090637 1303.666748,660.251221 1299.963745,648.595520 
	C1300.208862,647.081848 1300.453979,645.568115 1302.171753,643.562622 
	C1302.771606,637.771729 1303.261353,631.966675 1304.003784,626.194092 
	C1304.692017,620.842712 1305.650269,615.526123 1306.504150,610.102478 
	C1305.076416,604.192383 1303.329468,597.900391 1302.070190,591.512329 
	C1300.475098,583.420532 1299.544312,575.189453 1297.709839,567.159424 
	C1297.276611,565.263245 1293.961060,562.322876 1292.695801,562.651550 
	C1289.425781,563.500977 1286.996826,566.064087 1290.098633,571.190125 
	C1289.414062,572.132629 1288.729614,573.075195 1286.676025,574.133606 
	C1284.517822,577.851440 1279.355469,580.353577 1281.859131,587.320679 
	C1280.305664,589.523682 1278.752197,591.726685 1275.840454,594.125977 
	C1272.483398,595.512390 1269.126343,596.898865 1264.561401,598.784180 
	C1265.321533,592.333557 1266.862915,587.348999 1261.940552,582.640930 
	C1262.760376,581.137634 1263.580200,579.634277 1265.789185,577.814209 
	C1266.451294,575.705627 1267.113403,573.597046 1268.014282,570.180298 
	C1269.556396,567.471558 1271.098389,564.762817 1274.045776,561.644836 
	C1274.395142,559.906067 1274.744385,558.167358 1275.244141,555.107727 
	C1277.027710,551.421936 1278.811279,547.736084 1281.954224,543.704529 
	C1282.469604,542.067749 1282.984863,540.431030 1283.429443,538.280029 
	C1283.429443,538.280029 1283.854736,537.982361 1285.393433,538.012634 
	C1295.635498,534.937317 1296.397095,532.816650 1289.782227,524.415283 
	C1290.096069,523.124573 1290.231201,521.756775 1290.749634,520.554382 
	C1306.829102,483.266205 1320.828369,445.257050 1330.024780,405.631378 
	C1338.825928,367.707977 1343.611938,329.486694 1335.230713,290.838257 
	C1331.895752,275.459320 1325.832153,261.085846 1315.085327,249.069672 
	C1294.073853,225.576294 1266.944336,220.389069 1237.565918,224.403320 
	C1205.759155,228.749390 1176.617188,240.565887 1150.746094,259.917755 
	C1147.903076,262.044373 1144.921631,263.986053 1142.270142,265.828796 
	C1119.742310,248.997528 1102.832397,255.509628 1089.511963,268.467346 
	C1079.753662,277.959900 1073.807861,296.045502 1085.869629,313.374969 
	C1098.358765,331.318604 1117.603394,332.945740 1132.742554,326.619843 
	C1150.528320,319.188110 1157.078613,301.784821 1151.823975,277.432922 
	C1152.828613,276.830505 1153.886475,276.077393 1155.039551,275.522369 
	C1174.473145,266.168854 1194.917725,263.094635 1216.302734,265.482361 
	C1227.226074,266.701996 1236.684082,270.753632 1245.064819,277.992920 
	C1259.122314,290.135864 1266.019653,305.841949 1269.724365,323.586945 
	C1274.792847,347.863281 1272.649536,372.141174 1269.047363,396.132202 
	C1265.006348,423.046814 1258.633179,449.618591 1248.853271,475.125916 
	C1239.355713,499.896973 1229.970459,524.771851 1219.002930,548.904541 
	C1202.356445,585.532593 1182.599731,620.605530 1160.690186,654.347290 
	C1138.235352,688.929016 1114.793457,722.772522 1088.322388,754.579712 
	C1049.441650,801.298584 1007.757507,844.873352 958.593018,880.944519 
	C934.185669,898.851746 909.449829,916.098206 880.892334,926.978699 
	C865.575500,932.814392 850.092773,936.977661 833.378235,936.215698 
	C811.898987,935.236572 795.816162,925.793396 785.351135,907.256470 
	C775.626709,890.031433 772.345154,871.000610 772.394104,851.504333 
	C772.431580,836.595642 773.644226,821.689941 774.362122,806.784241 
	C774.367249,806.677429 774.764404,806.589478 774.978516,806.492615 
	C774.794067,806.553955 774.609558,806.615295 773.964844,806.829773 
	C772.608276,810.923340 770.750671,815.194702 769.794922,819.659119 
	C766.735535,833.949890 763.586609,848.243530 761.253174,862.662476 
	C757.565063,885.452759 756.216187,908.400330 760.402954,931.293518 
	C766.179749,962.881714 780.679260,987.517517 813.926331,998.043518 
	C815.336426,999.826111 816.746460,1001.608643 818.156494,1003.391174 
	C819.452637,1001.835510 820.748718,1000.279846 823.508179,998.369812 
	C824.979248,998.606506 826.450256,998.843201 828.471130,1000.403198 
	C833.906311,1001.975098 839.469727,1004.693054 845.274048,997.957336 
	C846.191650,998.013306 847.109192,998.069336 848.119995,999.541748 
	C849.374268,1000.748291 850.628601,1001.954834 851.882935,1003.161377 
	C852.652283,1000.991455 853.421570,998.821594 854.836670,996.236145 
	C855.344910,996.233032 855.848938,996.277161 857.735107,997.219971 
	C861.751099,997.214233 865.871155,997.464783 869.421997,992.157959 
	C878.975525,988.866638 888.529114,985.575317 898.727295,983.144592 
	C899.830750,982.234680 900.934204,981.324829 903.027954,979.567139 
	C904.667297,979.037292 906.306641,978.507446 909.289368,978.101135 
	C910.878723,976.949646 912.468018,975.798096 915.020325,973.759216 
	C916.631348,973.152283 918.242371,972.545349 921.449707,972.092041 
	C925.137207,972.674255 928.824646,973.256531 932.837830,973.890198 
	C934.027100,969.334045 934.995911,965.622314 936.706421,960.784973 
	C951.065613,951.154175 965.424805,941.523438 981.084167,932.512390 
	C986.668335,936.195740 989.082642,930.075500 993.059937,928.795776 
	C1003.493225,925.438843 1007.958069,917.750732 1010.539795,906.647766 
	C1018.508667,899.816345 1026.477417,892.984924 1035.942383,886.153809 
	C1037.511841,885.811096 1039.820312,886.009827 1040.531738,885.038635 
	C1045.482300,878.280212 1054.561157,879.699646 1059.710938,873.863403 
	C1064.193726,879.076904 1060.584839,883.226624 1059.442261,888.513733 
	C1058.843140,888.996399 1058.243896,889.479126 1056.148315,889.955444 
	C1053.026855,890.233765 1051.806519,891.933228 1052.018799,896.116760 
M1785.011475,622.999268 
	C1785.021973,653.658508 1785.047241,684.317749 1785.038818,714.976990 
	C1785.030151,745.971497 1784.912109,776.966248 1784.981689,807.960510 
	C1785.050171,838.419373 1784.638306,868.890015 1785.212280,899.106567 
	C1815.794434,899.106567 1844.922852,899.106567 1874.993530,899.106567 
	C1874.993530,883.696045 1874.975464,869.084900 1874.996582,854.473694 
	C1875.113647,773.485474 1874.963379,692.495178 1875.585205,611.510803 
	C1875.717651,594.282776 1877.854980,576.947510 1880.541992,559.893799 
	C1883.705933,539.814087 1890.820923,520.814148 1900.256470,502.740326 
	C1909.992310,484.091370 1923.760986,469.061920 1941.401001,457.768768 
	C1954.272339,449.528290 1967.559937,442.007477 1983.216431,440.063568 
	C1994.051270,438.718353 2004.783325,436.215393 2015.645020,435.498596 
	C2030.972168,434.487122 2045.871704,437.460052 2060.944824,440.790985 
	C2079.895508,444.978760 2093.843018,455.475037 2106.605469,468.944366 
	C2122.722168,485.954224 2130.339355,507.028595 2135.685547,529.108521 
	C2141.348145,552.495056 2143.249512,576.400024 2143.321533,600.388672 
	C2143.613037,697.375244 2143.672607,794.362427 2143.857910,891.349365 
	C2143.862793,893.888977 2144.327148,896.427673 2144.599121,899.188416 
	C2174.402100,899.188416 2203.494873,899.188416 2233.593262,899.188416 
	C2233.593262,895.172241 2233.594971,891.918823 2233.592773,888.665466 
	C2233.522705,780.679993 2233.208984,672.693726 2233.545166,564.709473 
	C2233.635010,535.875427 2230.144775,507.860352 2222.513184,480.067139 
	C2215.459717,454.377594 2203.733643,431.508606 2186.997070,410.865936 
	C2168.827881,388.456146 2144.920410,374.804413 2118.503662,365.115204 
	C2108.609375,361.486115 2097.982910,359.812561 2087.646973,357.436371 
	C2062.740967,351.710632 2037.670776,350.086304 2012.391602,354.814178 
	C2006.517944,355.912689 2000.692871,357.456329 1994.770264,358.073303 
	C1978.049316,359.815155 1962.491699,365.363953 1947.359741,372.207977 
	C1933.723511,378.375458 1920.923584,385.877930 1909.016113,395.179047 
	C1893.737305,407.113708 1879.628784,420.034729 1868.118530,435.658661 
	C1863.716675,441.633728 1859.618774,447.832733 1855.642212,453.555695 
	C1848.661743,442.204254 1841.904663,431.694061 1835.632324,420.902069 
	C1826.528687,405.238220 1812.494141,394.384338 1798.261963,384.353241 
	C1785.041870,375.035431 1770.149658,368.114227 1754.511597,363.083282 
	C1737.006958,357.451691 1719.048950,354.058197 1700.853394,352.563416 
	C1673.372559,350.305817 1646.697388,355.626221 1620.236450,362.707825 
	C1601.355591,367.760834 1584.810181,377.332703 1568.276123,387.171387 
	C1550.312500,397.860840 1535.940552,412.513885 1522.378784,428.119415 
	C1520.887085,429.835938 1518.882446,431.106659 1515.557007,433.887451 
	C1514.056641,408.791687 1516.475098,385.951721 1514.497681,363.850952 
	C1484.506348,363.850952 1455.680420,363.850952 1426.967896,363.850952 
	C1424.912964,381.573181 1426.159546,892.022766 1428.260132,899.326904 
	C1457.321045,899.326904 1486.459717,899.326904 1516.508911,899.326904 
	C1516.508911,895.738098 1516.507202,892.791687 1516.509155,889.845276 
	C1516.556885,815.521484 1516.413818,741.196899 1516.736938,666.874329 
	C1516.890137,631.628540 1514.656982,596.238892 1522.205444,561.326050 
	C1526.707520,540.503479 1532.924316,520.539490 1543.757080,501.899506 
	C1564.465698,466.265747 1594.951294,445.262024 1635.233643,438.047333 
	C1654.706299,434.559723 1674.290894,434.090118 1693.792114,437.547577 
	C1702.248535,439.046814 1710.980225,440.606995 1718.755859,444.028290 
	C1741.739990,454.141205 1757.185059,472.313416 1767.414307,494.647675 
	C1775.585083,512.487122 1780.480103,531.648193 1782.087769,551.159668 
	C1783.999756,574.362305 1784.121582,597.712463 1785.011475,622.999268 
M2596.817627,905.904358 
	C2633.800049,909.271484 2670.702393,909.473938 2707.018555,900.609802 
	C2731.242432,894.697144 2754.933594,886.979065 2777.208496,875.408081 
	C2794.113770,866.626404 2809.557617,855.612976 2823.990234,843.404419 
	C2833.774658,835.127686 2841.992188,824.997925 2851.421143,815.164124 
	C2832.199951,796.193237 2816.144043,775.959045 2796.381104,759.393982 
	C2777.444580,778.832214 2750.034180,801.550171 2719.398193,812.756958 
	C2700.273438,819.752991 2681.018799,825.073181 2660.768066,826.926086 
	C2633.296143,829.439575 2606.195068,827.177185 2579.832764,819.231995 
	C2566.867920,815.324585 2554.177979,810.124756 2541.917480,804.336609 
	C2512.755127,790.568848 2491.128174,768.245422 2474.444824,741.161194 
	C2461.996582,720.952637 2454.376709,698.661377 2449.604980,675.433044 
	C2448.909912,672.049072 2448.760254,668.552979 2448.252441,664.202271 
	C2452.931641,664.202271 2456.215088,664.203552 2459.498291,664.202148 
	C2558.801270,664.160034 2658.104248,664.127808 2757.407227,664.070557 
	C2797.061523,664.047668 2836.716064,664.004700 2876.370361,663.890503 
	C2885.562500,663.864014 2885.884033,663.231506 2886.368652,654.399414 
	C2888.109863,622.678833 2885.485107,591.186584 2879.418457,560.155945 
	C2873.536133,530.069641 2863.419434,501.168396 2847.778076,474.608978 
	C2837.699707,457.495941 2826.529541,441.088043 2812.666260,426.619446 
	C2798.552490,411.889404 2782.598145,399.646240 2765.256104,389.041748 
	C2747.899414,378.428375 2729.351318,370.438019 2709.901123,364.808319 
	C2698.783447,361.590363 2687.251465,359.614075 2675.789795,357.823334 
	C2661.732422,355.627075 2647.587646,353.842255 2633.420166,352.534760 
	C2608.248535,350.211731 2583.806152,356.495026 2559.156250,359.866364 
	C2549.355957,361.206757 2539.307861,363.373077 2530.297363,367.290741 
	C2512.435547,375.056976 2494.311523,382.146576 2477.523438,392.577209 
	C2443.678955,413.604828 2417.577637,441.644745 2396.658936,475.125946 
	C2387.115723,490.400299 2380.225342,506.792175 2374.228027,523.661255 
	C2371.678223,530.833984 2368.067139,537.706055 2366.217285,545.037476 
	C2359.193604,572.874390 2355.117920,601.309082 2355.524902,629.938477 
	C2355.954102,660.153748 2359.947021,690.165588 2368.667725,719.304626 
	C2370.648438,725.923218 2373.326904,732.330322 2375.405762,738.922668 
	C2384.650879,768.238953 2400.480469,793.816284 2420.919922,816.393616 
	C2436.514404,833.619263 2453.333740,849.516479 2473.231689,862.232727 
	C2487.021729,871.045532 2501.011719,879.270874 2516.095215,885.203857 
	C2541.515381,895.202881 2567.871582,902.156128 2596.817627,905.904358 
M469.595306,827.640625 
	C457.089905,826.106323 444.399536,825.449036 432.116791,822.858765 
	C404.876099,817.114136 379.995117,806.014038 358.182556,788.231079 
	C338.005981,771.781921 322.010925,751.978699 310.851807,728.692017 
	C294.789642,695.173645 288.474335,659.281494 289.882477,622.330566 
	C290.434021,607.857544 292.196747,593.333801 295.381989,578.910522 
	C300.007660,557.964661 307.338165,538.330872 317.913635,519.879456 
	C337.407898,485.867279 366.177399,461.876740 401.700317,446.411438 
	C414.546387,440.818787 428.805481,437.306183 442.754272,435.633209 
	C482.788696,430.831635 521.758911,434.389038 557.800903,454.902374 
	C573.017151,463.562744 586.454224,474.200317 597.679443,487.617065 
	C603.617493,494.714478 609.466797,501.886169 615.905762,509.690521 
	C639.999084,492.357178 664.096130,475.021179 688.852783,457.210602 
	C682.285706,449.142914 676.570862,441.889160 670.612122,434.841644 
	C642.788147,401.934204 606.914490,381.123352 566.997253,366.660400 
	C550.720093,360.762817 533.610352,357.997589 516.497925,355.746429 
	C504.966980,354.229523 493.345459,353.343414 481.744537,352.427948 
	C457.239227,350.494202 433.334991,355.793365 409.310608,359.085999 
	C398.509613,360.566345 387.473206,362.834015 377.453186,366.955627 
	C359.760101,374.233459 341.692810,380.555725 325.308533,391.232452 
	C307.667297,402.728210 290.485413,414.627777 275.739502,429.548492 
	C249.565140,456.033081 229.702744,486.826569 216.624405,521.754456 
	C211.879349,534.426941 206.985123,547.259033 204.362656,560.456238 
	C201.069962,577.026367 199.396576,593.999878 198.177261,610.882568 
	C196.010391,640.885132 198.735001,670.632812 204.817200,700.094788 
	C211.256668,731.287231 222.680313,760.397888 239.748199,787.374756 
	C257.338928,815.178040 278.780670,839.298157 305.833496,858.146729 
	C326.919525,872.838074 349.143066,885.452209 374.043457,892.630859 
	C387.467163,896.500854 400.771545,901.467224 414.490387,903.475891 
	C436.851257,906.750061 459.428436,908.794617 482.179565,907.902466 
	C503.539185,907.064819 524.703918,905.289001 545.336365,899.368652 
	C551.096130,897.716064 556.736267,895.636902 562.516357,894.066345 
	C582.609131,888.606445 600.953918,879.298462 618.221497,867.988403 
	C637.784790,855.174805 655.659302,840.275085 670.095093,821.634521 
	C676.538025,813.314880 684.442200,805.998718 688.727539,795.232117 
	C666.521484,776.926086 641.175232,763.947571 618.124512,748.078064 
	C614.804443,752.705017 612.015564,756.762024 609.055054,760.689697 
	C591.552429,783.909729 570.363770,802.147766 543.001343,813.420044 
	C519.894592,822.939087 496.292175,827.945435 469.595306,827.640625 
M3169.687012,822.014893 
	C3155.264404,817.048340 3144.639648,807.756042 3136.367920,794.901428 
	C3128.903809,783.301453 3126.364746,770.275208 3124.517334,757.338257 
	C3122.315674,741.919678 3121.681396,726.174011 3121.642578,710.566833 
	C3121.427002,623.594238 3121.591309,536.620789 3121.666992,449.647614 
	C3121.669189,447.117340 3122.127930,444.587494 3122.464600,441.120575 
	C3173.942383,441.120575 3224.754150,441.120575 3275.812012,441.120575 
	C3275.812012,414.938385 3275.812012,389.773132 3275.812012,363.581360 
	C3271.554443,363.581360 3267.954590,363.577789 3264.354736,363.581879 
	C3219.703125,363.632507 3175.051270,363.690735 3130.399658,363.730164 
	C3121.618408,363.737915 3121.486328,363.453400 3121.513428,354.859283 
	C3121.651367,311.206665 3121.736816,267.553864 3121.763428,223.901138 
	C3121.764648,222.057770 3120.997314,220.213959 3120.613770,218.486191 
	C3090.569092,218.486191 3061.089844,218.486191 3030.495850,218.486191 
	C3030.495850,267.023926 3030.495850,314.876862 3030.495850,363.868469 
	C2998.981689,363.868469 2968.575195,363.868469 2937.852295,363.868469 
	C2937.852295,389.932434 2937.852295,414.841492 2937.852295,441.160187 
	C2968.817383,442.037415 2999.549316,441.301270 3030.894043,441.682098 
	C3030.894043,447.164825 3030.897461,451.462769 3030.893311,455.760742 
	C3030.814697,540.066589 3030.952881,624.373535 3030.526855,708.677612 
	C3030.395508,734.679565 3031.961914,760.415955 3035.984131,786.103210 
	C3039.005615,805.399414 3044.306152,824.052490 3054.140869,840.697876 
	C3075.438721,876.744812 3108.889893,896.212952 3148.938965,904.284729 
	C3175.157471,909.569153 3201.837402,909.224243 3228.391846,904.984436 
	C3248.968750,901.698914 3268.114502,894.197571 3286.890381,885.657288 
	C3293.325195,882.730347 3299.189453,878.549072 3305.450195,874.861084 
	C3294.693115,850.729431 3284.531250,827.932983 3274.184082,804.720276 
	C3241.805664,826.238403 3208.153809,834.199463 3169.687012,822.014893 
M780.530640,493.623566 
	C773.365723,512.827209 762.919678,530.681763 758.941895,551.244324 
	C755.990540,566.500916 751.255859,581.406189 750.033813,597.028687 
	C747.665955,627.299194 746.412476,657.499207 753.748474,687.382446 
	C755.406128,694.134888 756.082886,701.138611 757.905334,707.837830 
	C761.210144,719.986389 763.619080,732.672302 768.995056,743.891357 
	C776.124084,758.768799 781.845459,774.325317 791.663025,788.095154 
	C804.663025,806.328552 818.321350,823.774414 834.851074,838.882751 
	C856.657959,858.814636 881.536682,873.919739 908.443054,885.952332 
	C912.847107,887.921936 915.844604,887.391663 919.331909,884.730164 
	C941.002441,868.191772 962.778381,851.791016 984.391174,835.177856 
	C987.845947,832.522339 990.655090,829.026855 994.187683,825.494690 
	C984.600708,822.948792 976.266724,820.921997 968.044006,818.515137 
	C947.724487,812.567444 928.691711,803.499817 912.430725,790.118896 
	C886.901184,769.110901 867.397095,743.505371 856.120422,711.789978 
	C847.585571,687.785950 841.356812,663.458130 841.188965,637.981689 
	C841.092834,623.392029 842.083862,608.709534 843.839417,594.220703 
	C845.227112,582.768188 847.177490,571.027039 851.296326,560.346619 
	C857.345276,544.661255 864.619995,529.461487 873.085144,514.695862 
	C886.632507,491.065613 905.769592,473.503387 928.290833,459.679932 
	C943.147461,450.561005 959.238525,443.895691 976.793945,439.651459 
	C1013.861328,430.689972 1050.033569,432.617493 1086.042358,443.046875 
	C1108.396240,449.521301 1127.663086,462.071533 1144.911865,477.504761 
	C1161.917358,492.720184 1174.766479,511.196014 1185.151611,531.416138 
	C1188.235107,537.419983 1191.010620,543.581970 1194.318970,550.489502 
	C1195.656372,548.489624 1196.471313,547.492615 1197.049561,546.373291 
	C1212.968506,515.562378 1224.884644,483.159943 1235.596436,450.248596 
	C1237.213379,445.280914 1234.807495,442.960693 1232.095703,439.914948 
	C1202.702637,406.903412 1166.426270,384.341492 1125.230347,369.169373 
	C1103.891846,361.310486 1081.662476,357.811462 1059.236328,354.822906 
	C1035.642822,351.678802 1012.190186,350.727020 988.681641,355.141724 
	C982.167297,356.365082 975.562439,357.119446 969.066223,358.423401 
	C958.335144,360.577454 947.354980,362.087463 937.024475,365.511902 
	C917.536560,371.971924 898.346375,379.018280 880.403381,389.660950 
	C862.523010,400.266571 846.043884,412.396912 830.937561,426.440216 
	C810.515076,445.425598 794.909180,468.164062 780.530640,493.623566 
z"/>
<path fill="#050505" opacity="1.000000" stroke="none" 
	d="
M1785.015259,621.999023 
	C1784.121582,597.712463 1783.999756,574.362305 1782.087769,551.159668 
	C1780.480103,531.648193 1775.585083,512.487122 1767.414307,494.647675 
	C1757.185059,472.313416 1741.739990,454.141205 1718.755859,444.028290 
	C1710.980225,440.606995 1702.248535,439.046814 1693.792114,437.547577 
	C1674.290894,434.090118 1654.706299,434.559723 1635.233643,438.047333 
	C1594.951294,445.262024 1564.465698,466.265747 1543.757080,501.899506 
	C1532.924316,520.539490 1526.707520,540.503479 1522.205444,561.326050 
	C1514.656982,596.238892 1516.890137,631.628540 1516.736938,666.874329 
	C1516.413818,741.196899 1516.556885,815.521484 1516.509155,889.845276 
	C1516.507202,892.791687 1516.508911,895.738098 1516.508911,899.326904 
	C1486.459717,899.326904 1457.321045,899.326904 1428.260132,899.326904 
	C1426.159546,892.022766 1424.912964,381.573181 1426.967896,363.850952 
	C1455.680420,363.850952 1484.506348,363.850952 1514.497681,363.850952 
	C1516.475098,385.951721 1514.056641,408.791687 1515.557007,433.887451 
	C1518.882446,431.106659 1520.887085,429.835938 1522.378784,428.119415 
	C1535.940552,412.513885 1550.312500,397.860840 1568.276123,387.171387 
	C1584.810181,377.332703 1601.355591,367.760834 1620.236450,362.707825 
	C1646.697388,355.626221 1673.372559,350.305817 1700.853394,352.563416 
	C1719.048950,354.058197 1737.006958,357.451691 1754.511597,363.083282 
	C1770.149658,368.114227 1785.041870,375.035431 1798.261963,384.353241 
	C1812.494141,394.384338 1826.528687,405.238220 1835.632324,420.902069 
	C1841.904663,431.694061 1848.661743,442.204254 1855.642212,453.555695 
	C1859.618774,447.832733 1863.716675,441.633728 1868.118530,435.658661 
	C1879.628784,420.034729 1893.737305,407.113708 1909.016113,395.179047 
	C1920.923584,385.877930 1933.723511,378.375458 1947.359741,372.207977 
	C1962.491699,365.363953 1978.049316,359.815155 1994.770264,358.073303 
	C2000.692871,357.456329 2006.517944,355.912689 2012.391602,354.814178 
	C2037.670776,350.086304 2062.740967,351.710632 2087.646973,357.436371 
	C2097.982910,359.812561 2108.609375,361.486115 2118.503662,365.115204 
	C2144.920410,374.804413 2168.827881,388.456146 2186.997070,410.865936 
	C2203.733643,431.508606 2215.459717,454.377594 2222.513184,480.067139 
	C2230.144775,507.860352 2233.635010,535.875427 2233.545166,564.709473 
	C2233.208984,672.693726 2233.522705,780.679993 2233.592773,888.665466 
	C2233.594971,891.918823 2233.593262,895.172241 2233.593262,899.188416 
	C2203.494873,899.188416 2174.402100,899.188416 2144.599121,899.188416 
	C2144.327148,896.427673 2143.862793,893.888977 2143.857910,891.349365 
	C2143.672607,794.362427 2143.613037,697.375244 2143.321533,600.388672 
	C2143.249512,576.400024 2141.348145,552.495056 2135.685547,529.108521 
	C2130.339355,507.028595 2122.722168,485.954224 2106.605469,468.944366 
	C2093.843018,455.475037 2079.895508,444.978760 2060.944824,440.790985 
	C2045.871704,437.460052 2030.972168,434.487122 2015.645020,435.498596 
	C2004.783325,436.215393 1994.051270,438.718353 1983.216431,440.063568 
	C1967.559937,442.007477 1954.272339,449.528290 1941.401001,457.768768 
	C1923.760986,469.061920 1909.992310,484.091370 1900.256470,502.740326 
	C1890.820923,520.814148 1883.705933,539.814087 1880.541992,559.893799 
	C1877.854980,576.947510 1875.717651,594.282776 1875.585205,611.510803 
	C1874.963379,692.495178 1875.113647,773.485474 1874.996582,854.473694 
	C1874.975464,869.084900 1874.993530,883.696045 1874.993530,899.106567 
	C1844.922852,899.106567 1815.794434,899.106567 1785.212280,899.106567 
	C1784.638306,868.890015 1785.050171,838.419373 1784.981689,807.960510 
	C1784.912109,776.966248 1785.030151,745.971497 1785.038818,714.976990 
	C1785.047241,684.317749 1785.021973,653.658508 1785.015259,621.999023 
z"/>
<path fill="#050505" opacity="1.000000" stroke="none" 
	d="
M2595.933105,905.780640 
	C2567.871582,902.156128 2541.515381,895.202881 2516.095215,885.203857 
	C2501.011719,879.270874 2487.021729,871.045532 2473.231689,862.232727 
	C2453.333740,849.516479 2436.514404,833.619263 2420.919922,816.393616 
	C2400.480469,793.816284 2384.650879,768.238953 2375.405762,738.922668 
	C2373.326904,732.330322 2370.648438,725.923218 2368.667725,719.304626 
	C2359.947021,690.165588 2355.954102,660.153748 2355.524902,629.938477 
	C2355.117920,601.309082 2359.193604,572.874390 2366.217285,545.037476 
	C2368.067139,537.706055 2371.678223,530.833984 2374.228027,523.661255 
	C2380.225342,506.792175 2387.115723,490.400299 2396.658936,475.125946 
	C2417.577637,441.644745 2443.678955,413.604828 2477.523438,392.577209 
	C2494.311523,382.146576 2512.435547,375.056976 2530.297363,367.290741 
	C2539.307861,363.373077 2549.355957,361.206757 2559.156250,359.866364 
	C2583.806152,356.495026 2608.248535,350.211731 2633.420166,352.534760 
	C2647.587646,353.842255 2661.732422,355.627075 2675.789795,357.823334 
	C2687.251465,359.614075 2698.783447,361.590363 2709.901123,364.808319 
	C2729.351318,370.438019 2747.899414,378.428375 2765.256104,389.041748 
	C2782.598145,399.646240 2798.552490,411.889404 2812.666260,426.619446 
	C2826.529541,441.088043 2837.699707,457.495941 2847.778076,474.608978 
	C2863.419434,501.168396 2873.536133,530.069641 2879.418457,560.155945 
	C2885.485107,591.186584 2888.109863,622.678833 2886.368652,654.399414 
	C2885.884033,663.231506 2885.562500,663.864014 2876.370361,663.890503 
	C2836.716064,664.004700 2797.061523,664.047668 2757.407227,664.070557 
	C2658.104248,664.127808 2558.801270,664.160034 2459.498291,664.202148 
	C2456.215088,664.203552 2452.931641,664.202271 2448.252441,664.202271 
	C2448.760254,668.552979 2448.909912,672.049072 2449.604980,675.433044 
	C2454.376709,698.661377 2461.996582,720.952637 2474.444824,741.161194 
	C2491.128174,768.245422 2512.755127,790.568848 2541.917480,804.336609 
	C2554.177979,810.124756 2566.867920,815.324585 2579.832764,819.231995 
	C2606.195068,827.177185 2633.296143,829.439575 2660.768066,826.926086 
	C2681.018799,825.073181 2700.273438,819.752991 2719.398193,812.756958 
	C2750.034180,801.550171 2777.444580,778.832214 2796.381104,759.393982 
	C2816.144043,775.959045 2832.199951,796.193237 2851.421143,815.164124 
	C2841.992188,824.997925 2833.774658,835.127686 2823.990234,843.404419 
	C2809.557617,855.612976 2794.113770,866.626404 2777.208496,875.408081 
	C2754.933594,886.979065 2731.242432,894.697144 2707.018555,900.609802 
	C2670.702393,909.473938 2633.800049,909.271484 2595.933105,905.780640 
M2470.291504,521.429688 
	C2458.559814,543.223022 2452.007324,566.554565 2448.634766,591.871338 
	C2564.227051,591.871338 2678.859619,591.871338 2794.218750,591.871338 
	C2793.855225,586.888184 2794.176025,582.474731 2793.129883,578.413574 
	C2787.513916,556.615479 2781.984375,534.768921 2770.431396,515.065918 
	C2759.796143,496.927826 2748.350586,479.441315 2730.998535,466.885559 
	C2722.950684,461.062347 2714.532471,455.734314 2706.123535,450.433289 
	C2701.652344,447.614471 2697.085449,443.940186 2692.138672,443.077698 
	C2679.058594,440.797028 2667.103760,435.028961 2653.797119,432.990051 
	C2629.733887,429.302979 2605.943604,429.608917 2582.660889,435.123932 
	C2565.796631,439.118683 2549.003662,444.392578 2533.797852,453.868958 
	C2518.429932,463.446259 2504.446533,474.346527 2492.599609,488.001282 
	C2484.083984,497.816223 2476.649414,508.364868 2470.291504,521.429688 
z"/>
<path fill="#050505" opacity="1.000000" stroke="none" 
	d="
M470.513367,827.638672 
	C496.292175,827.945435 519.894592,822.939087 543.001343,813.420044 
	C570.363770,802.147766 591.552429,783.909729 609.055054,760.689697 
	C612.015564,756.762024 614.804443,752.705017 618.124512,748.078064 
	C641.175232,763.947571 666.521484,776.926086 688.727539,795.232117 
	C684.442200,805.998718 676.538025,813.314880 670.095093,821.634521 
	C655.659302,840.275085 637.784790,855.174805 618.221497,867.988403 
	C600.953918,879.298462 582.609131,888.606445 562.516357,894.066345 
	C556.736267,895.636902 551.096130,897.716064 545.336365,899.368652 
	C524.703918,905.289001 503.539185,907.064819 482.179565,907.902466 
	C459.428436,908.794617 436.851257,906.750061 414.490387,903.475891 
	C400.771545,901.467224 387.467163,896.500854 374.043457,892.630859 
	C349.143066,885.452209 326.919525,872.838074 305.833496,858.146729 
	C278.780670,839.298157 257.338928,815.178040 239.748199,787.374756 
	C222.680313,760.397888 211.256668,731.287231 204.817200,700.094788 
	C198.735001,670.632812 196.010391,640.885132 198.177261,610.882568 
	C199.396576,593.999878 201.069962,577.026367 204.362656,560.456238 
	C206.985123,547.259033 211.879349,534.426941 216.624405,521.754456 
	C229.702744,486.826569 249.565140,456.033081 275.739502,429.548492 
	C290.485413,414.627777 307.667297,402.728210 325.308533,391.232452 
	C341.692810,380.555725 359.760101,374.233459 377.453186,366.955627 
	C387.473206,362.834015 398.509613,360.566345 409.310608,359.085999 
	C433.334991,355.793365 457.239227,350.494202 481.744537,352.427948 
	C493.345459,353.343414 504.966980,354.229523 516.497925,355.746429 
	C533.610352,357.997589 550.720093,360.762817 566.997253,366.660400 
	C606.914490,381.123352 642.788147,401.934204 670.612122,434.841644 
	C676.570862,441.889160 682.285706,449.142914 688.852783,457.210602 
	C664.096130,475.021179 639.999084,492.357178 615.905762,509.690521 
	C609.466797,501.886169 603.617493,494.714478 597.679443,487.617065 
	C586.454224,474.200317 573.017151,463.562744 557.800903,454.902374 
	C521.758911,434.389038 482.788696,430.831635 442.754272,435.633209 
	C428.805481,437.306183 414.546387,440.818787 401.700317,446.411438 
	C366.177399,461.876740 337.407898,485.867279 317.913635,519.879456 
	C307.338165,538.330872 300.007660,557.964661 295.381989,578.910522 
	C292.196747,593.333801 290.434021,607.857544 289.882477,622.330566 
	C288.474335,659.281494 294.789642,695.173645 310.851807,728.692017 
	C322.010925,751.978699 338.005981,771.781921 358.182556,788.231079 
	C379.995117,806.014038 404.876099,817.114136 432.116791,822.858765 
	C444.399536,825.449036 457.089905,826.106323 470.513367,827.638672 
z"/>
<path fill="#050605" opacity="1.000000" stroke="none" 
	d="
M3170.469727,822.159058 
	C3208.153809,834.199463 3241.805664,826.238403 3274.184082,804.720276 
	C3284.531250,827.932983 3294.693115,850.729431 3305.450195,874.861084 
	C3299.189453,878.549072 3293.325195,882.730347 3286.890381,885.657288 
	C3268.114502,894.197571 3248.968750,901.698914 3228.391846,904.984436 
	C3201.837402,909.224243 3175.157471,909.569153 3148.938965,904.284729 
	C3108.889893,896.212952 3075.438721,876.744812 3054.140869,840.697876 
	C3044.306152,824.052490 3039.005615,805.399414 3035.984131,786.103210 
	C3031.961914,760.415955 3030.395508,734.679565 3030.526855,708.677612 
	C3030.952881,624.373535 3030.814697,540.066589 3030.893311,455.760742 
	C3030.897461,451.462769 3030.894043,447.164825 3030.894043,441.682098 
	C2999.549316,441.301270 2968.817383,442.037415 2937.852295,441.160187 
	C2937.852295,414.841492 2937.852295,389.932434 2937.852295,363.868469 
	C2968.575195,363.868469 2998.981689,363.868469 3030.495850,363.868469 
	C3030.495850,314.876862 3030.495850,267.023926 3030.495850,218.486191 
	C3061.089844,218.486191 3090.569092,218.486191 3120.613770,218.486191 
	C3120.997314,220.213959 3121.764648,222.057770 3121.763428,223.901138 
	C3121.736816,267.553864 3121.651367,311.206665 3121.513428,354.859283 
	C3121.486328,363.453400 3121.618408,363.737915 3130.399658,363.730164 
	C3175.051270,363.690735 3219.703125,363.632507 3264.354736,363.581879 
	C3267.954590,363.577789 3271.554443,363.581360 3275.812012,363.581360 
	C3275.812012,389.773132 3275.812012,414.938385 3275.812012,441.120575 
	C3224.754150,441.120575 3173.942383,441.120575 3122.464600,441.120575 
	C3122.127930,444.587494 3121.669189,447.117340 3121.666992,449.647614 
	C3121.591309,536.620789 3121.427002,623.594238 3121.642578,710.566833 
	C3121.681396,726.174011 3122.315674,741.919678 3124.517334,757.338257 
	C3126.364746,770.275208 3128.903809,783.301453 3136.367920,794.901428 
	C3144.639648,807.756042 3155.264404,817.048340 3170.469727,822.159058 
z"/>
<path fill="#050505" opacity="1.000000" stroke="none" 
	d="
M780.948242,493.006317 
	C794.909180,468.164062 810.515076,445.425598 830.937561,426.440216 
	C846.043884,412.396912 862.523010,400.266571 880.403381,389.660950 
	C898.346375,379.018280 917.536560,371.971924 937.024475,365.511902 
	C947.354980,362.087463 958.335144,360.577454 969.066223,358.423401 
	C975.562439,357.119446 982.167297,356.365082 988.681641,355.141724 
	C1012.190186,350.727020 1035.642822,351.678802 1059.236328,354.822906 
	C1081.662476,357.811462 1103.891846,361.310486 1125.230347,369.169373 
	C1166.426270,384.341492 1202.702637,406.903412 1232.095703,439.914948 
	C1234.807495,442.960693 1237.213379,445.280914 1235.596436,450.248596 
	C1224.884644,483.159943 1212.968506,515.562378 1197.049561,546.373291 
	C1196.471313,547.492615 1195.656372,548.489624 1194.318970,550.489502 
	C1191.010620,543.581970 1188.235107,537.419983 1185.151611,531.416138 
	C1174.766479,511.196014 1161.917358,492.720184 1144.911865,477.504761 
	C1127.663086,462.071533 1108.396240,449.521301 1086.042358,443.046875 
	C1050.033569,432.617493 1013.861328,430.689972 976.793945,439.651459 
	C959.238525,443.895691 943.147461,450.561005 928.290833,459.679932 
	C905.769592,473.503387 886.632507,491.065613 873.085144,514.695862 
	C864.619995,529.461487 857.345276,544.661255 851.296326,560.346619 
	C847.177490,571.027039 845.227112,582.768188 843.839417,594.220703 
	C842.083862,608.709534 841.092834,623.392029 841.188965,637.981689 
	C841.356812,663.458130 847.585571,687.785950 856.120422,711.789978 
	C867.397095,743.505371 886.901184,769.110901 912.430725,790.118896 
	C928.691711,803.499817 947.724487,812.567444 968.044006,818.515137 
	C976.266724,820.921997 984.600708,822.948792 994.187683,825.494690 
	C990.655090,829.026855 987.845947,832.522339 984.391174,835.177856 
	C962.778381,851.791016 941.002441,868.191772 919.331909,884.730164 
	C915.844604,887.391663 912.847107,887.921936 908.443054,885.952332 
	C881.536682,873.919739 856.657959,858.814636 834.851074,838.882751 
	C818.321350,823.774414 804.663025,806.328552 791.663025,788.095154 
	C781.845459,774.325317 776.124084,758.768799 768.995056,743.891357 
	C763.619080,732.672302 761.210144,719.986389 757.905334,707.837830 
	C756.082886,701.138611 755.406128,694.134888 753.748474,687.382446 
	C746.412476,657.499207 747.665955,627.299194 750.033813,597.028687 
	C751.255859,581.406189 755.990540,566.500916 758.941895,551.244324 
	C762.919678,530.681763 773.365723,512.827209 780.948242,493.006317 
z"/>
<path fill="#070707" opacity="1.000000" stroke="none" 
	d="
M919.853394,971.938477 
	C918.242371,972.545349 916.631348,973.152283 913.917297,974.139404 
	C911.191467,975.672241 909.568726,976.824951 907.945984,977.977661 
	C906.306641,978.507446 904.667297,979.037292 901.947876,979.908569 
	C899.939453,980.927979 899.011047,981.605957 898.082642,982.283936 
	C888.529114,985.575317 878.975525,988.866638 868.068970,992.429382 
	C863.260315,993.923340 859.804565,995.145874 856.348877,996.368408 
	C855.848938,996.277161 855.344910,996.233032 853.976196,996.253723 
	C851.419434,996.889343 849.723145,997.507324 848.026794,998.125366 
	C847.109192,998.069336 846.191650,998.013306 843.793579,998.056519 
	C837.515808,998.463806 832.718567,998.771851 827.921326,999.079895 
	C826.450256,998.843201 824.979248,998.606506 822.198242,998.121094 
	C818.571228,997.482788 816.254089,997.093262 813.937012,996.703735 
	C780.679260,987.517517 766.179749,962.881714 760.402954,931.293518 
	C756.216187,908.400330 757.565063,885.452759 761.253174,862.662476 
	C763.586609,848.243530 766.735535,833.949890 769.794922,819.659119 
	C770.750671,815.194702 772.608276,810.923340 773.964844,806.829773 
	C774.609558,806.615295 774.794067,806.553955 774.978516,806.492676 
	C774.764404,806.589478 774.367249,806.677429 774.362122,806.784241 
	C773.644226,821.689941 772.431580,836.595642 772.394104,851.504333 
	C772.345154,871.000610 775.626709,890.031433 785.351135,907.256470 
	C795.816162,925.793396 811.898987,935.236572 833.378235,936.215698 
	C850.092773,936.977661 865.575500,932.814392 880.892334,926.978699 
	C909.449829,916.098206 934.185669,898.851746 958.593018,880.944519 
	C1007.757507,844.873352 1049.441650,801.298584 1088.322388,754.579712 
	C1114.793457,722.772522 1138.235352,688.929016 1160.690186,654.347290 
	C1182.599731,620.605530 1202.356445,585.532593 1219.002930,548.904541 
	C1229.970459,524.771851 1239.355713,499.896973 1248.853271,475.125916 
	C1258.633179,449.618591 1265.006348,423.046814 1269.047363,396.132202 
	C1272.649536,372.141174 1274.792847,347.863281 1269.724365,323.586945 
	C1266.019653,305.841949 1259.122314,290.135864 1245.064819,277.992920 
	C1236.684082,270.753632 1227.226074,266.701996 1216.302734,265.482361 
	C1194.917725,263.094635 1174.473145,266.168854 1155.039551,275.522369 
	C1153.886475,276.077393 1152.828613,276.830505 1151.823975,277.432922 
	C1157.078613,301.784821 1150.528320,319.188110 1132.742554,326.619843 
	C1117.603394,332.945740 1098.358765,331.318604 1085.869629,313.374969 
	C1073.807861,296.045502 1079.753662,277.959900 1089.511963,268.467346 
	C1102.832397,255.509628 1119.742310,248.997528 1142.270142,265.828796 
	C1144.921631,263.986053 1147.903076,262.044373 1150.746094,259.917755 
	C1176.617188,240.565887 1205.759155,228.749390 1237.565918,224.403320 
	C1266.944336,220.389069 1294.073853,225.576294 1315.085327,249.069672 
	C1325.832153,261.085846 1331.895752,275.459320 1335.230713,290.838257 
	C1343.611938,329.486694 1338.825928,367.707977 1330.024780,405.631378 
	C1320.828369,445.257050 1306.829102,483.266205 1290.749634,520.554382 
	C1290.231201,521.756775 1290.096069,523.124573 1289.155273,525.483398 
	C1286.970459,530.361755 1285.412598,534.172058 1283.854736,537.982361 
	C1283.854736,537.982361 1283.429443,538.280029 1282.910645,538.871765 
	C1281.792847,540.992432 1281.193848,542.521362 1280.594849,544.050293 
	C1278.811279,547.736084 1277.027710,551.421936 1274.648071,556.160889 
	C1273.581421,558.827393 1273.110962,560.440735 1272.640381,562.054077 
	C1271.098389,564.762817 1269.556396,567.471558 1267.314453,571.131226 
	C1265.876465,574.098389 1265.138306,576.114685 1264.400024,578.130981 
	C1263.580200,579.634277 1262.760376,581.137634 1261.351196,583.620850 
	C1249.127563,605.104492 1238.307007,626.125488 1225.675903,645.995483 
	C1204.647949,679.074768 1183.377075,712.074890 1160.534790,743.907349 
	C1129.676636,786.910400 1095.429810,827.208801 1057.036743,863.825684 
	C1049.376343,871.131653 1041.969849,878.703979 1034.446289,886.153503 
	C1026.477417,892.984924 1018.508667,899.816345 1009.554810,907.339111 
	C998.974548,915.984436 989.379211,923.938538 979.783936,931.892700 
	C965.424805,941.523438 951.065613,951.154175 935.633728,961.413757 
	C929.658508,965.341187 924.755920,968.639832 919.853394,971.938477 
z"/>
<path fill="#070707" opacity="1.000000" stroke="none" 
	d="
M1264.370361,776.033752 
	C1263.458252,777.233948 1262.546021,778.434143 1260.950195,780.553894 
	C1258.193970,785.650818 1256.121094,789.828186 1254.048218,794.005493 
	C1254.048218,794.005493 1253.529175,794.226196 1252.879395,794.794922 
	C1249.197266,799.456238 1246.164795,803.548828 1243.132324,807.641418 
	C1232.248535,818.628967 1221.364746,829.616516 1209.565674,841.314697 
	C1207.542114,843.300781 1206.434082,844.576233 1205.326050,845.851685 
	C1204.840454,845.886108 1204.420776,846.070679 1203.191162,846.895630 
	C1196.210571,852.258911 1190.105957,857.131775 1184.001343,862.004700 
	C1175.059326,867.269409 1166.117432,872.534058 1155.990234,878.174683 
	C1153.152100,879.678955 1151.499268,880.807251 1149.846436,881.935608 
	C1148.814819,882.358398 1147.783081,882.781128 1145.620605,883.541992 
	C1133.682373,887.997803 1122.874878,892.115601 1112.067383,896.233398 
	C1111.130493,896.266479 1110.193604,896.299561 1107.938965,896.635010 
	C1099.094604,899.337097 1091.567871,901.736877 1084.041138,904.136658 
	C1082.522461,904.125427 1081.003784,904.114197 1078.096191,904.126221 
	C1074.483521,904.805847 1072.259766,905.462280 1070.036133,906.118652 
	C1067.881226,906.189148 1065.726440,906.259705 1062.103394,906.305298 
	C1057.087158,906.843811 1053.539185,907.407288 1049.991089,907.970703 
	C1048.467773,907.866943 1046.944458,907.763245 1044.291138,907.178101 
	C1043.716797,905.246277 1044.272461,903.795837 1044.828125,902.345337 
	C1047.224976,900.269104 1049.621948,898.192932 1052.803223,895.322876 
	C1054.940063,893.006592 1056.292480,891.484192 1057.644775,889.961792 
	C1058.243896,889.479126 1058.843140,888.996399 1060.354980,887.957275 
	C1074.979370,873.437622 1089.270630,859.990540 1102.270142,845.393188 
	C1123.021729,822.091125 1143.445068,798.450745 1162.989502,774.135376 
	C1176.703613,757.073730 1188.612671,738.569702 1201.525391,720.853638 
	C1226.181396,687.025635 1246.678589,650.627686 1267.458252,614.409912 
	C1271.209106,607.872375 1273.977051,600.770874 1277.198730,593.929688 
	C1278.752197,591.726685 1280.305664,589.523682 1282.419312,586.244019 
	C1284.667969,581.450867 1286.356567,577.734253 1288.045044,574.017700 
	C1288.729614,573.075195 1289.414062,572.132629 1290.553223,570.018982 
	C1292.372192,569.027588 1294.749512,568.881775 1294.929565,569.442078 
	C1295.827881,572.237427 1296.443359,575.200073 1296.625000,578.136780 
	C1297.822998,597.505920 1298.874268,616.884033 1300.001465,636.257629 
	C1300.152954,638.861267 1300.462524,641.455750 1300.699097,644.054443 
	C1300.453979,645.568115 1300.208862,647.081848 1299.693115,649.991699 
	C1298.527100,660.944946 1297.631958,670.501953 1296.736816,680.059021 
	C1295.738403,683.533997 1294.739990,687.008972 1293.462158,691.867554 
	C1290.568481,704.513367 1288.361694,715.891113 1285.207886,727.000122 
	C1282.788818,735.520691 1279.175293,743.702087 1276.092896,752.034302 
	C1275.442749,752.992249 1274.792725,753.950195 1273.835449,755.879883 
	C1273.401245,757.930603 1273.274170,759.009460 1273.147095,760.088379 
	C1271.846436,761.769165 1270.545898,763.449890 1268.618286,766.204651 
	C1266.784424,770.196960 1265.577393,773.115356 1264.370361,776.033752 
z"/>
<path fill="#EBECEA" opacity="1.000000" stroke="none" 
	d="
M1276.519531,594.027832 
	C1273.977051,600.770874 1271.209106,607.872375 1267.458252,614.409912 
	C1246.678589,650.627686 1226.181396,687.025635 1201.525391,720.853638 
	C1188.612671,738.569702 1176.703613,757.073730 1162.989502,774.135376 
	C1143.445068,798.450745 1123.021729,822.091125 1102.270142,845.393188 
	C1089.270630,859.990540 1074.979370,873.437622 1060.607788,887.431091 
	C1060.584839,883.226624 1064.193726,879.076904 1059.710938,873.863403 
	C1054.561157,879.699646 1045.482300,878.280212 1040.531738,885.038635 
	C1039.820312,886.009827 1037.511841,885.811096 1035.194336,886.153687 
	C1041.969849,878.703979 1049.376343,871.131653 1057.036743,863.825684 
	C1095.429810,827.208801 1129.676636,786.910400 1160.534790,743.907349 
	C1183.377075,712.074890 1204.647949,679.074768 1225.675903,645.995483 
	C1238.307007,626.125488 1249.127563,605.104492 1261.372437,584.297852 
	C1266.862915,587.348999 1265.321533,592.333557 1264.561401,598.784180 
	C1269.126343,596.898865 1272.483398,595.512390 1276.519531,594.027832 
z"/>
<path fill="#EBECEA" opacity="1.000000" stroke="none" 
	d="
M1301.435425,643.808533 
	C1300.462524,641.455750 1300.152954,638.861267 1300.001465,636.257629 
	C1298.874268,616.884033 1297.822998,597.505920 1296.625000,578.136780 
	C1296.443359,575.200073 1295.827881,572.237427 1294.929565,569.442078 
	C1294.749512,568.881775 1292.372192,569.027588 1290.443970,569.407532 
	C1286.996826,566.064087 1289.425781,563.500977 1292.695801,562.651550 
	C1293.961060,562.322876 1297.276611,565.263245 1297.709839,567.159424 
	C1299.544312,575.189453 1300.475098,583.420532 1302.070190,591.512329 
	C1303.329468,597.900391 1305.076416,604.192383 1306.504150,610.102478 
	C1305.650269,615.526123 1304.692017,620.842712 1304.003784,626.194092 
	C1303.261353,631.966675 1302.771606,637.771729 1301.435425,643.808533 
z"/>
<path fill="#EBECEA" opacity="1.000000" stroke="none" 
	d="
M1276.843994,751.966553 
	C1279.175293,743.702087 1282.788818,735.520691 1285.207886,727.000122 
	C1288.361694,715.891113 1290.568481,704.513367 1293.622437,692.634155 
	C1294.638550,693.793274 1295.965332,695.710632 1295.662231,697.321350 
	C1294.330933,704.394653 1292.203735,711.326660 1291.053223,718.421387 
	C1290.579956,721.339478 1291.841675,724.538940 1292.479492,728.683838 
	C1291.818970,729.214355 1290.129761,730.571167 1288.510864,731.871582 
	C1288.448120,732.325928 1288.307617,732.674377 1288.371216,732.980225 
	C1291.277710,746.938354 1291.279785,746.937927 1276.843994,751.966553 
z"/>
<path fill="#EBECEA" opacity="1.000000" stroke="none" 
	d="
M980.434082,932.202515 
	C989.379211,923.938538 998.974548,915.984436 1009.251099,907.931274 
	C1007.958069,917.750732 1003.493225,925.438843 993.059937,928.795776 
	C989.082642,930.075500 986.668335,936.195740 980.434082,932.202515 
z"/>
<path fill="#EBECEA" opacity="1.000000" stroke="none" 
	d="
M1112.527832,896.722046 
	C1122.874878,892.115601 1133.682373,887.997803 1145.248291,883.972534 
	C1145.080811,885.941833 1144.524902,889.098633 1143.169312,889.490723 
	C1133.198730,892.374512 1123.068359,894.705627 1112.527832,896.722046 
z"/>
<path fill="#EBECEA" opacity="1.000000" stroke="none" 
	d="
M1297.430664,679.851379 
	C1297.631958,670.501953 1298.527100,660.944946 1299.887207,650.742065 
	C1303.666748,660.251221 1302.794922,670.090637 1297.430664,679.851379 
z"/>
<path fill="#EBECEA" opacity="1.000000" stroke="none" 
	d="
M1084.484131,904.675476 
	C1091.567871,901.736877 1099.094604,899.337097 1107.359497,897.049377 
	C1106.313110,898.758118 1104.692627,900.609314 1102.704712,901.890564 
	C1099.877808,903.712646 1096.780884,905.115723 1092.283081,907.502380 
	C1090.951172,907.088074 1087.939087,906.151184 1084.484131,904.675476 
z"/>
<path fill="#EBECEA" opacity="1.000000" stroke="none" 
	d="
M1184.414551,862.542236 
	C1190.105957,857.131775 1196.210571,852.258911 1202.999512,847.187378 
	C1203.683960,849.502869 1203.683960,852.016968 1203.683960,853.195801 
	C1198.922607,856.398132 1195.413086,859.063171 1191.604858,861.194763 
	C1189.617065,862.307556 1187.103760,862.481628 1184.414551,862.542236 
z"/>
<path fill="#EBECEA" opacity="1.000000" stroke="none" 
	d="
M920.651550,972.015259 
	C924.755920,968.639832 929.658508,965.341187 935.262939,961.976562 
	C934.995911,965.622314 934.027100,969.334045 932.837830,973.890198 
	C928.824646,973.256531 925.137207,972.674255 920.651550,972.015259 
z"/>
<path fill="#EBECEA" opacity="1.000000" stroke="none" 
	d="
M1284.624023,537.997498 
	C1285.412598,534.172058 1286.970459,530.361755 1289.132446,526.235229 
	C1296.397095,532.816650 1295.635498,534.937317 1284.624023,537.997498 
z"/>
<path fill="#EBECEA" opacity="1.000000" stroke="none" 
	d="
M1243.959961,807.747253 
	C1246.164795,803.548828 1249.197266,799.456238 1252.867188,795.076660 
	C1253.918823,804.981506 1253.594238,805.467896 1243.959961,807.747253 
z"/>
<path fill="#EBECEA" opacity="1.000000" stroke="none" 
	d="
M1254.855225,794.035095 
	C1256.121094,789.828186 1258.193970,785.650818 1260.881470,781.120850 
	C1262.020386,784.633911 1262.544556,788.499451 1263.168701,793.101379 
	C1260.632812,793.426758 1258.147583,793.745728 1254.855225,794.035095 
z"/>
<path fill="#EBECEA" opacity="1.000000" stroke="none" 
	d="
M828.196228,999.741577 
	C832.718567,998.771851 837.515808,998.463806 843.183350,998.407471 
	C839.469727,1004.693054 833.906311,1001.975098 828.196228,999.741577 
z"/>
<path fill="#EBECEA" opacity="1.000000" stroke="none" 
	d="
M813.931641,997.373657 
	C816.254089,997.093262 818.571228,997.482788 821.466553,998.298218 
	C820.748718,1000.279846 819.452637,1001.835510 818.156494,1003.391235 
	C816.746460,1001.608643 815.336426,999.826111 813.931641,997.373657 
z"/>
<path fill="#EBECEA" opacity="1.000000" stroke="none" 
	d="
M1287.360596,574.075684 
	C1286.356567,577.734253 1284.667969,581.450867 1282.433105,585.568237 
	C1279.355469,580.353577 1284.517822,577.851440 1287.360596,574.075684 
z"/>
<path fill="#EBECEA" opacity="1.000000" stroke="none" 
	d="
M1050.456299,908.526733 
	C1053.539185,907.407288 1057.087158,906.843811 1061.354248,906.625732 
	C1059.210205,912.186279 1054.916870,909.847961 1050.456299,908.526733 
z"/>
<path fill="#EBECEA" opacity="1.000000" stroke="none" 
	d="
M848.073364,998.833496 
	C849.723145,997.507324 851.419434,996.889343 853.653320,996.461487 
	C853.421570,998.821594 852.652283,1000.991455 851.882935,1003.161377 
	C850.628601,1001.954834 849.374268,1000.748291 848.073364,998.833496 
z"/>
<path fill="#EBECEA" opacity="1.000000" stroke="none" 
	d="
M1044.115845,902.265015 
	C1044.272461,903.795837 1043.716797,905.246277 1043.558594,907.416321 
	C1041.572876,910.915649 1039.658325,909.373962 1038.968750,906.996643 
	C1037.985352,903.606140 1040.616821,902.608032 1044.115845,902.265015 
z"/>
<path fill="#EBECEA" opacity="1.000000" stroke="none" 
	d="
M857.041992,996.794189 
	C859.804565,995.145874 863.260315,993.923340 867.399048,992.858521 
	C865.871155,997.464783 861.751099,997.214233 857.041992,996.794189 
z"/>
<path fill="#EBECEA" opacity="1.000000" stroke="none" 
	d="
M1070.441162,906.638306 
	C1072.259766,905.462280 1074.483521,904.805847 1077.379883,904.397095 
	C1076.870483,908.981018 1073.943726,908.314209 1070.441162,906.638306 
z"/>
<path fill="#EBECEA" opacity="1.000000" stroke="none" 
	d="
M1265.098633,775.891357 
	C1265.577393,773.115356 1266.784424,770.196960 1268.517090,766.836487 
	C1270.381836,770.341431 1269.053589,773.371521 1265.098633,775.891357 
z"/>
<path fill="#EBECEA" opacity="1.000000" stroke="none" 
	d="
M1056.896484,889.958618 
	C1056.292480,891.484192 1054.940063,893.006592 1052.989014,894.755371 
	C1051.806519,891.933228 1053.026855,890.233765 1056.896484,889.958618 
z"/>
<path fill="#EBECEA" opacity="1.000000" stroke="none" 
	d="
M1265.094604,577.972595 
	C1265.138306,576.114685 1265.876465,574.098389 1267.195068,571.785278 
	C1267.113403,573.597046 1266.451294,575.705627 1265.094604,577.972595 
z"/>
<path fill="#EBECEA" opacity="1.000000" stroke="none" 
	d="
M1150.520508,882.002686 
	C1151.499268,880.807251 1153.152100,879.678955 1155.432739,878.621521 
	C1154.438599,879.818237 1152.816528,880.944031 1150.520508,882.002686 
z"/>
<path fill="#EBECEA" opacity="1.000000" stroke="none" 
	d="
M908.617676,978.039368 
	C909.568726,976.824951 911.191467,975.672241 913.435791,974.583008 
	C912.468018,975.798096 910.878723,976.949646 908.617676,978.039368 
z"/>
<path fill="#EBECEA" opacity="1.000000" stroke="none" 
	d="
M1206.051758,845.873047 
	C1206.434082,844.576233 1207.542114,843.300781 1209.289673,841.924866 
	C1208.878540,843.181030 1207.828003,844.537659 1206.051758,845.873047 
z"/>
<path fill="#EBECEA" opacity="1.000000" stroke="none" 
	d="
M898.405029,982.714294 
	C899.011047,981.605957 899.939453,980.927979 901.452759,980.332458 
	C900.934204,981.324829 899.830750,982.234680 898.405029,982.714294 
z"/>
<path fill="#EBECEA" opacity="1.000000" stroke="none" 
	d="
M1281.274658,543.877441 
	C1281.193848,542.521362 1281.792847,540.992432 1282.946045,539.128906 
	C1282.984863,540.431030 1282.469604,542.067749 1281.274658,543.877441 
z"/>
<path fill="#EBECEA" opacity="1.000000" stroke="none" 
	d="
M1273.643311,759.993835 
	C1273.274170,759.009460 1273.401245,757.930603 1273.950195,756.475037 
	C1274.294556,757.365356 1274.217041,758.632324 1273.643311,759.993835 
z"/>
<path fill="#EBECEA" opacity="1.000000" stroke="none" 
	d="
M1273.343018,561.849426 
	C1273.110962,560.440735 1273.581421,558.827393 1274.572876,556.821350 
	C1274.744385,558.167358 1274.395142,559.906067 1273.343018,561.849426 
z"/>
<path fill="#FBFBFA" opacity="1.000000" stroke="none" 
	d="
M2470.621094,520.756226 
	C2476.649414,508.364868 2484.083984,497.816223 2492.599609,488.001282 
	C2504.446533,474.346527 2518.429932,463.446259 2533.797852,453.868958 
	C2549.003662,444.392578 2565.796631,439.118683 2582.660889,435.123932 
	C2605.943604,429.608917 2629.733887,429.302979 2653.797119,432.990051 
	C2667.103760,435.028961 2679.058594,440.797028 2692.138672,443.077698 
	C2697.085449,443.940186 2701.652344,447.614471 2706.123535,450.433289 
	C2714.532471,455.734314 2722.950684,461.062347 2730.998535,466.885559 
	C2748.350586,479.441315 2759.796143,496.927826 2770.431396,515.065918 
	C2781.984375,534.768921 2787.513916,556.615479 2793.129883,578.413574 
	C2794.176025,582.474731 2793.855225,586.888184 2794.218750,591.871338 
	C2678.859619,591.871338 2564.227051,591.871338 2448.634766,591.871338 
	C2452.007324,566.554565 2458.559814,543.223022 2470.621094,520.756226 
z"/>
</svg>